<?xml version="1.0" encoding="UTF-8" standalone="no"?>
<!DOCTYPE svg PUBLIC "-//W3C//DTD SVG 1.1//EN"
 "http://www.w3.org/Graphics/SVG/1.1/DTD/svg11.dtd">
<!-- Generated by graphviz version 2.49.3 (20211027.1534)
 -->
<!-- Title: algorithm.hpp Pages: 1 -->
<svg width="369pt" height="140pt"
 viewBox="0.00 0.00 368.50 140.00" xmlns="http://www.w3.org/2000/svg" xmlns:xlink="http://www.w3.org/1999/xlink">
<g id="graph0" class="graph" transform="scale(1 1) rotate(0) translate(4 136)">
<title>algorithm.hpp</title>
<!-- Node1 -->
<g id="node1" class="node">
<title>Node1</title>
<g id="a_node1"><a xlink:title=" ">
<polygon fill="#bfbfbf" stroke="black" points="136.5,-112.5 136.5,-131.5 210.5,-131.5 210.5,-112.5 136.5,-112.5"/>
<text text-anchor="middle" x="173.5" y="-119.5" font-family="Helvetica,sans-Serif" font-size="10.00">algorithm.hpp</text>
</a>
</g>
</g>
<!-- Node2 -->
<g id="node2" class="node">
<title>Node2</title>
<g id="a_node2"><a xlink:href="deque_8hpp.html" target="_top" xlink:title=" ">
<polygon fill="none" stroke="black" points="0,-56.5 0,-75.5 61,-75.5 61,-56.5 0,-56.5"/>
<text text-anchor="middle" x="30.5" y="-63.5" font-family="Helvetica,sans-Serif" font-size="10.00">deque.hpp</text>
</a>
</g>
</g>
<!-- Node1&#45;&gt;Node2 -->
<g id="edge1" class="edge">
<title>Node1&#45;&gt;Node2</title>
<path fill="none" stroke="midnightblue" d="M141.47,-108.91C114.59,-98.75 76.86,-84.51 53.05,-75.52"/>
<polygon fill="midnightblue" stroke="midnightblue" points="140.25,-112.19 150.84,-112.44 142.72,-105.64 140.25,-112.19"/>
</g>
<!-- Node3 -->
<g id="node3" class="node">
<title>Node3</title>
<g id="a_node3"><a xlink:href="list_8hpp.html" target="_top" xlink:title=" ">
<polygon fill="none" stroke="black" points="79,-56.5 79,-75.5 126,-75.5 126,-56.5 79,-56.5"/>
<text text-anchor="middle" x="102.5" y="-63.5" font-family="Helvetica,sans-Serif" font-size="10.00">list.hpp</text>
</a>
</g>
</g>
<!-- Node1&#45;&gt;Node3 -->
<g id="edge2" class="edge">
<title>Node1&#45;&gt;Node3</title>
<path fill="none" stroke="midnightblue" d="M153.91,-106.1C141.13,-96.38 124.89,-84.03 114.11,-75.83"/>
<polygon fill="midnightblue" stroke="midnightblue" points="152.01,-109.06 162.09,-112.32 156.25,-103.48 152.01,-109.06"/>
</g>
<!-- Node4 -->
<g id="node4" class="node">
<title>Node4</title>
<g id="a_node4"><a xlink:href="rbtree_8hpp.html" target="_top" xlink:title=" ">
<polygon fill="none" stroke="black" points="144,-56.5 144,-75.5 203,-75.5 203,-56.5 144,-56.5"/>
<text text-anchor="middle" x="173.5" y="-63.5" font-family="Helvetica,sans-Serif" font-size="10.00">rbtree.hpp</text>
</a>
</g>
</g>
<!-- Node1&#45;&gt;Node4 -->
<g id="edge3" class="edge">
<title>Node1&#45;&gt;Node4</title>
<path fill="none" stroke="midnightblue" d="M173.5,-101.8C173.5,-92.91 173.5,-82.78 173.5,-75.75"/>
<polygon fill="midnightblue" stroke="midnightblue" points="170,-102.08 173.5,-112.08 177,-102.08 170,-102.08"/>
</g>
<!-- Node6 -->
<g id="node6" class="node">
<title>Node6</title>
<g id="a_node6"><a xlink:href="stack_8hpp.html" target="_top" xlink:title=" ">
<polygon fill="none" stroke="black" points="221,-56.5 221,-75.5 280,-75.5 280,-56.5 221,-56.5"/>
<text text-anchor="middle" x="250.5" y="-63.5" font-family="Helvetica,sans-Serif" font-size="10.00">stack.hpp</text>
</a>
</g>
</g>
<!-- Node1&#45;&gt;Node6 -->
<g id="edge5" class="edge">
<title>Node1&#45;&gt;Node6</title>
<path fill="none" stroke="midnightblue" d="M194.4,-106.34C208.41,-96.52 226.38,-83.91 238.16,-75.65"/>
<polygon fill="midnightblue" stroke="midnightblue" points="192.05,-103.72 185.87,-112.32 196.07,-109.45 192.05,-103.72"/>
</g>
<!-- Node7 -->
<g id="node7" class="node">
<title>Node7</title>
<g id="a_node7"><a xlink:href="vector_8hpp.html" target="_top" xlink:title=" ">
<polygon fill="none" stroke="black" points="298.5,-56.5 298.5,-75.5 360.5,-75.5 360.5,-56.5 298.5,-56.5"/>
<text text-anchor="middle" x="329.5" y="-63.5" font-family="Helvetica,sans-Serif" font-size="10.00">vector.hpp</text>
</a>
</g>
</g>
<!-- Node1&#45;&gt;Node7 -->
<g id="edge6" class="edge">
<title>Node1&#45;&gt;Node7</title>
<path fill="none" stroke="midnightblue" d="M207.67,-109.17C237.04,-99 278.7,-84.59 304.9,-75.52"/>
<polygon fill="midnightblue" stroke="midnightblue" points="206.52,-105.86 198.22,-112.44 208.81,-112.48 206.52,-105.86"/>
</g>
<!-- Node5 -->
<g id="node5" class="node">
<title>Node5</title>
<g id="a_node5"><a xlink:href="multimap_8hpp.html" target="_top" xlink:title=" ">
<polygon fill="none" stroke="black" points="136.5,-0.5 136.5,-19.5 210.5,-19.5 210.5,-0.5 136.5,-0.5"/>
<text text-anchor="middle" x="173.5" y="-7.5" font-family="Helvetica,sans-Serif" font-size="10.00">multimap.hpp</text>
</a>
</g>
</g>
<!-- Node4&#45;&gt;Node5 -->
<g id="edge4" class="edge">
<title>Node4&#45;&gt;Node5</title>
<path fill="none" stroke="midnightblue" d="M173.5,-45.8C173.5,-36.91 173.5,-26.78 173.5,-19.75"/>
<polygon fill="midnightblue" stroke="midnightblue" points="170,-46.08 173.5,-56.08 177,-46.08 170,-46.08"/>
</g>
</g>
</svg>
