<?xml version="1.0" encoding="UTF-8" standalone="no"?>
<!DOCTYPE svg PUBLIC "-//W3C//DTD SVG 1.1//EN"
 "http://www.w3.org/Graphics/SVG/1.1/DTD/svg11.dtd">
<!-- Generated by graphviz version 2.49.3 (20211027.1534)
 -->
<!-- Title: construct.hpp Pages: 1 -->
<svg width="187pt" height="140pt"
 viewBox="0.00 0.00 186.50 140.00" xmlns="http://www.w3.org/2000/svg" xmlns:xlink="http://www.w3.org/1999/xlink">
<g id="graph0" class="graph" transform="scale(1 1) rotate(0) translate(4 136)">
<title>construct.hpp</title>
<!-- Node1 -->
<g id="node1" class="node">
<title>Node1</title>
<g id="a_node1"><a xlink:title=" ">
<polygon fill="#bfbfbf" stroke="black" points="28,-112.5 28,-131.5 103,-131.5 103,-112.5 28,-112.5"/>
<text text-anchor="middle" x="65.5" y="-119.5" font-family="Helvetica,sans-Serif" font-size="10.00">construct.hpp</text>
</a>
</g>
</g>
<!-- Node2 -->
<g id="node2" class="node">
<title>Node2</title>
<g id="a_node2"><a xlink:href="list_8hpp.html" target="_top" xlink:title=" ">
<polygon fill="none" stroke="black" points="0,-56.5 0,-75.5 47,-75.5 47,-56.5 0,-56.5"/>
<text text-anchor="middle" x="23.5" y="-63.5" font-family="Helvetica,sans-Serif" font-size="10.00">list.hpp</text>
</a>
</g>
</g>
<!-- Node1&#45;&gt;Node2 -->
<g id="edge1" class="edge">
<title>Node1&#45;&gt;Node2</title>
<path fill="none" stroke="midnightblue" d="M52.39,-104.14C45.07,-94.74 36.26,-83.4 30.31,-75.75"/>
<polygon fill="midnightblue" stroke="midnightblue" points="49.66,-106.34 58.56,-112.08 55.19,-102.04 49.66,-106.34"/>
</g>
<!-- Node3 -->
<g id="node3" class="node">
<title>Node3</title>
<g id="a_node3"><a xlink:href="uninitialized_8hpp.html" target="_top" xlink:title=" ">
<polygon fill="none" stroke="black" points="65,-56.5 65,-75.5 150,-75.5 150,-56.5 65,-56.5"/>
<text text-anchor="middle" x="107.5" y="-63.5" font-family="Helvetica,sans-Serif" font-size="10.00">uninitialized.hpp</text>
</a>
</g>
</g>
<!-- Node1&#45;&gt;Node3 -->
<g id="edge2" class="edge">
<title>Node1&#45;&gt;Node3</title>
<path fill="none" stroke="midnightblue" d="M78.61,-104.14C85.93,-94.74 94.74,-83.4 100.69,-75.75"/>
<polygon fill="midnightblue" stroke="midnightblue" points="75.81,-102.04 72.44,-112.08 81.34,-106.34 75.81,-102.04"/>
</g>
<!-- Node4 -->
<g id="node4" class="node">
<title>Node4</title>
<g id="a_node4"><a xlink:href="deque_8hpp.html" target="_top" xlink:title=" ">
<polygon fill="none" stroke="black" points="37,-0.5 37,-19.5 98,-19.5 98,-0.5 37,-0.5"/>
<text text-anchor="middle" x="67.5" y="-7.5" font-family="Helvetica,sans-Serif" font-size="10.00">deque.hpp</text>
</a>
</g>
</g>
<!-- Node3&#45;&gt;Node4 -->
<g id="edge3" class="edge">
<title>Node3&#45;&gt;Node4</title>
<path fill="none" stroke="midnightblue" d="M94.8,-47.86C87.87,-38.5 79.59,-27.33 73.98,-19.75"/>
<polygon fill="midnightblue" stroke="midnightblue" points="92.13,-50.13 100.89,-56.08 97.75,-45.96 92.13,-50.13"/>
</g>
<!-- Node5 -->
<g id="node5" class="node">
<title>Node5</title>
<g id="a_node5"><a xlink:href="vector_8hpp.html" target="_top" xlink:title=" ">
<polygon fill="none" stroke="black" points="116.5,-0.5 116.5,-19.5 178.5,-19.5 178.5,-0.5 116.5,-0.5"/>
<text text-anchor="middle" x="147.5" y="-7.5" font-family="Helvetica,sans-Serif" font-size="10.00">vector.hpp</text>
</a>
</g>
</g>
<!-- Node3&#45;&gt;Node5 -->
<g id="edge4" class="edge">
<title>Node3&#45;&gt;Node5</title>
<path fill="none" stroke="midnightblue" d="M120.2,-47.86C127.13,-38.5 135.41,-27.33 141.02,-19.75"/>
<polygon fill="midnightblue" stroke="midnightblue" points="117.25,-45.96 114.11,-56.08 122.87,-50.13 117.25,-45.96"/>
</g>
</g>
</svg>
