<?xml version="1.0" encoding="UTF-8" standalone="no"?>
<!DOCTYPE svg PUBLIC "-//W3C//DTD SVG 1.1//EN"
 "http://www.w3.org/Graphics/SVG/1.1/DTD/svg11.dtd">
<!-- Generated by graphviz version 2.49.3 (20211027.1534)
 -->
<!-- Title: construct.hpp Pages: 1 -->
<svg width="476pt" height="196pt"
 viewBox="0.00 0.00 476.49 196.00" xmlns="http://www.w3.org/2000/svg" xmlns:xlink="http://www.w3.org/1999/xlink">
<g id="graph0" class="graph" transform="scale(1 1) rotate(0) translate(4 192)">
<title>construct.hpp</title>
<!-- Node1 -->
<g id="node1" class="node">
<title>Node1</title>
<g id="a_node1"><a xlink:title=" ">
<polygon fill="#bfbfbf" stroke="black" points="2.99,-168.5 2.99,-187.5 77.99,-187.5 77.99,-168.5 2.99,-168.5"/>
<text text-anchor="middle" x="40.49" y="-175.5" font-family="Helvetica,sans-Serif" font-size="10.00">construct.hpp</text>
</a>
</g>
</g>
<!-- Node2 -->
<g id="node2" class="node">
<title>Node2</title>
<g id="a_node2"><a xlink:title=" ">
<polygon fill="none" stroke="#bfbfbf" points="30.99,-0.5 30.99,-19.5 79.99,-19.5 79.99,-0.5 30.99,-0.5"/>
<text text-anchor="middle" x="55.49" y="-7.5" font-family="Helvetica,sans-Serif" font-size="10.00">cstddef</text>
</a>
</g>
</g>
<!-- Node1&#45;&gt;Node2 -->
<g id="edge1" class="edge">
<title>Node1&#45;&gt;Node2</title>
<path fill="none" stroke="midnightblue" d="M33.86,-168.2C19.39,-147.85 -12.39,-96.15 5.49,-56 11.06,-43.5 22.01,-33.01 32.24,-25.32"/>
<polygon fill="midnightblue" stroke="midnightblue" points="34.34,-28.12 40.54,-19.53 30.34,-22.38 34.34,-28.12"/>
</g>
<!-- Node3 -->
<g id="node3" class="node">
<title>Node3</title>
<g id="a_node3"><a xlink:href="iterator_8hpp.html" target="_top" xlink:title=" ">
<polygon fill="none" stroke="black" points="88.49,-112.5 88.49,-131.5 160.49,-131.5 160.49,-112.5 88.49,-112.5"/>
<text text-anchor="middle" x="124.49" y="-119.5" font-family="Helvetica,sans-Serif" font-size="10.00">../iterator.hpp</text>
</a>
</g>
</g>
<!-- Node1&#45;&gt;Node3 -->
<g id="edge2" class="edge">
<title>Node1&#45;&gt;Node3</title>
<path fill="none" stroke="midnightblue" d="M53.99,-168.32C67.09,-159.9 87.2,-146.97 102.6,-137.07"/>
<polygon fill="midnightblue" stroke="midnightblue" points="104.51,-140.01 111.03,-131.65 100.73,-134.12 104.51,-140.01"/>
</g>
<!-- Node4 -->
<g id="node4" class="node">
<title>Node4</title>
<g id="a_node4"><a xlink:title=" ">
<polygon fill="none" stroke="#bfbfbf" points="14.99,-56.5 14.99,-75.5 65.99,-75.5 65.99,-56.5 14.99,-56.5"/>
<text text-anchor="middle" x="40.49" y="-63.5" font-family="Helvetica,sans-Serif" font-size="10.00">memory</text>
</a>
</g>
</g>
<!-- Node1&#45;&gt;Node4 -->
<g id="edge8" class="edge">
<title>Node1&#45;&gt;Node4</title>
<path fill="none" stroke="midnightblue" d="M40.49,-168.37C40.49,-150.62 40.49,-109.67 40.49,-85.6"/>
<polygon fill="midnightblue" stroke="midnightblue" points="43.99,-85.59 40.49,-75.59 36.99,-85.59 43.99,-85.59"/>
</g>
<!-- Node3&#45;&gt;Node4 -->
<g id="edge3" class="edge">
<title>Node3&#45;&gt;Node4</title>
<path fill="none" stroke="midnightblue" d="M111,-112.32C97.89,-103.9 77.78,-90.97 62.39,-81.07"/>
<polygon fill="midnightblue" stroke="midnightblue" points="64.26,-78.12 53.96,-75.65 60.47,-84.01 64.26,-78.12"/>
</g>
<!-- Node5 -->
<g id="node5" class="node">
<title>Node5</title>
<g id="a_node5"><a xlink:href="type__traits_8hpp.html" target="_top" xlink:title=" ">
<polygon fill="none" stroke="black" points="84.49,-56.5 84.49,-75.5 164.49,-75.5 164.49,-56.5 84.49,-56.5"/>
<text text-anchor="middle" x="124.49" y="-63.5" font-family="Helvetica,sans-Serif" font-size="10.00">type_traits.hpp</text>
</a>
</g>
</g>
<!-- Node3&#45;&gt;Node5 -->
<g id="edge4" class="edge">
<title>Node3&#45;&gt;Node5</title>
<path fill="none" stroke="midnightblue" d="M124.49,-112.08C124.49,-105.01 124.49,-94.86 124.49,-85.99"/>
<polygon fill="midnightblue" stroke="midnightblue" points="127.99,-85.75 124.49,-75.75 120.99,-85.75 127.99,-85.75"/>
</g>
<!-- Node6 -->
<g id="node6" class="node">
<title>Node6</title>
<g id="a_node6"><a xlink:href="reverse__iterator_8hpp.html" target="_top" xlink:title=" ">
<polygon fill="none" stroke="black" points="182.99,-56.5 182.99,-75.5 317.99,-75.5 317.99,-56.5 182.99,-56.5"/>
<text text-anchor="middle" x="250.49" y="-63.5" font-family="Helvetica,sans-Serif" font-size="10.00">iterator/reverse_iterator.hpp</text>
</a>
</g>
</g>
<!-- Node3&#45;&gt;Node6 -->
<g id="edge6" class="edge">
<title>Node3&#45;&gt;Node6</title>
<path fill="none" stroke="midnightblue" d="M144.46,-112.44C165.1,-103.6 197.55,-89.69 221.12,-79.59"/>
<polygon fill="midnightblue" stroke="midnightblue" points="222.81,-82.67 230.62,-75.52 220.05,-76.24 222.81,-82.67"/>
</g>
<!-- Node7 -->
<g id="node7" class="node">
<title>Node7</title>
<g id="a_node7"><a xlink:href="normal__iterator_8hpp.html" target="_top" xlink:title=" ">
<polygon fill="none" stroke="black" points="336.49,-56.5 336.49,-75.5 468.49,-75.5 468.49,-56.5 336.49,-56.5"/>
<text text-anchor="middle" x="402.49" y="-63.5" font-family="Helvetica,sans-Serif" font-size="10.00">iterator/normal_iterator.hpp</text>
</a>
</g>
</g>
<!-- Node3&#45;&gt;Node7 -->
<g id="edge7" class="edge">
<title>Node3&#45;&gt;Node7</title>
<path fill="none" stroke="midnightblue" d="M160.55,-114C208.4,-104.7 293.29,-88.21 348.72,-77.44"/>
<polygon fill="midnightblue" stroke="midnightblue" points="349.57,-80.85 358.72,-75.5 348.23,-73.97 349.57,-80.85"/>
</g>
<!-- Node5&#45;&gt;Node2 -->
<g id="edge5" class="edge">
<title>Node5&#45;&gt;Node2</title>
<path fill="none" stroke="midnightblue" d="M113.41,-56.32C103.01,-48.18 87.23,-35.84 74.77,-26.09"/>
<polygon fill="midnightblue" stroke="midnightblue" points="76.81,-23.24 66.78,-19.83 72.5,-28.75 76.81,-23.24"/>
</g>
</g>
</svg>
