<?xml version="1.0" encoding="UTF-8" standalone="no"?>
<!DOCTYPE svg PUBLIC "-//W3C//DTD SVG 1.1//EN"
 "http://www.w3.org/Graphics/SVG/1.1/DTD/svg11.dtd">
<!-- Generated by graphviz version 2.49.3 (20211027.1534)
 -->
<!-- Title: deque.hpp Pages: 1 -->
<svg width="646pt" height="308pt"
 viewBox="0.00 0.00 645.50 308.00" xmlns="http://www.w3.org/2000/svg" xmlns:xlink="http://www.w3.org/1999/xlink">
<g id="graph0" class="graph" transform="scale(1 1) rotate(0) translate(4 304)">
<title>deque.hpp</title>
<!-- Node1 -->
<g id="node1" class="node">
<title>Node1</title>
<g id="a_node1"><a xlink:title=" ">
<polygon fill="#bfbfbf" stroke="black" points="410.5,-280.5 410.5,-299.5 471.5,-299.5 471.5,-280.5 410.5,-280.5"/>
<text text-anchor="middle" x="441" y="-287.5" font-family="Helvetica,sans-Serif" font-size="10.00">deque.hpp</text>
</a>
</g>
</g>
<!-- Node2 -->
<g id="node2" class="node">
<title>Node2</title>
<g id="a_node2"><a xlink:href="iterator_8hpp.html" target="_top" xlink:title=" ">
<polygon fill="none" stroke="black" points="286.5,-112.5 286.5,-131.5 351.5,-131.5 351.5,-112.5 286.5,-112.5"/>
<text text-anchor="middle" x="319" y="-119.5" font-family="Helvetica,sans-Serif" font-size="10.00">iterator.hpp</text>
</a>
</g>
</g>
<!-- Node1&#45;&gt;Node2 -->
<g id="edge1" class="edge">
<title>Node1&#45;&gt;Node2</title>
<path fill="none" stroke="midnightblue" d="M410.19,-281.17C369.88,-269.02 301.26,-241.25 275,-188 266,-169.75 282.47,-150.67 297.76,-137.94"/>
<polygon fill="midnightblue" stroke="midnightblue" points="300.22,-140.47 305.97,-131.57 295.92,-134.94 300.22,-140.47"/>
</g>
<!-- Node8 -->
<g id="node8" class="node">
<title>Node8</title>
<g id="a_node8"><a xlink:href="uninitialized_8hpp.html" target="_top" xlink:title=" ">
<polygon fill="none" stroke="black" points="380,-224.5 380,-243.5 502,-243.5 502,-224.5 380,-224.5"/>
<text text-anchor="middle" x="441" y="-231.5" font-family="Helvetica,sans-Serif" font-size="10.00">memory/uninitialized.hpp</text>
</a>
</g>
</g>
<!-- Node1&#45;&gt;Node8 -->
<g id="edge7" class="edge">
<title>Node1&#45;&gt;Node8</title>
<path fill="none" stroke="midnightblue" d="M441,-280.08C441,-273.01 441,-262.86 441,-253.99"/>
<polygon fill="midnightblue" stroke="midnightblue" points="444.5,-253.75 441,-243.75 437.5,-253.75 444.5,-253.75"/>
</g>
<!-- Node10 -->
<g id="node10" class="node">
<title>Node10</title>
<g id="a_node10"><a xlink:href="algorithm_8hpp.html" target="_top" xlink:title=" ">
<polygon fill="none" stroke="black" points="284,-168.5 284,-187.5 358,-187.5 358,-168.5 284,-168.5"/>
<text text-anchor="middle" x="321" y="-175.5" font-family="Helvetica,sans-Serif" font-size="10.00">algorithm.hpp</text>
</a>
</g>
</g>
<!-- Node1&#45;&gt;Node10 -->
<g id="edge15" class="edge">
<title>Node1&#45;&gt;Node10</title>
<path fill="none" stroke="midnightblue" d="M424.32,-280.43C409.39,-272.28 387.38,-259.05 371,-244 355.5,-229.75 341.22,-210.28 331.93,-196.37"/>
<polygon fill="midnightblue" stroke="midnightblue" points="334.72,-194.24 326.34,-187.76 328.85,-198.05 334.72,-194.24"/>
</g>
<!-- Node11 -->
<g id="node11" class="node">
<title>Node11</title>
<g id="a_node11"><a xlink:title=" ">
<polygon fill="none" stroke="#bfbfbf" points="520,-224.5 520,-243.5 560,-243.5 560,-224.5 520,-224.5"/>
<text text-anchor="middle" x="540" y="-231.5" font-family="Helvetica,sans-Serif" font-size="10.00">limits</text>
</a>
</g>
</g>
<!-- Node1&#45;&gt;Node11 -->
<g id="edge18" class="edge">
<title>Node1&#45;&gt;Node11</title>
<path fill="none" stroke="midnightblue" d="M456.91,-280.32C472.64,-271.74 496.94,-258.49 515.21,-248.52"/>
<polygon fill="midnightblue" stroke="midnightblue" points="517.03,-251.52 524.13,-243.65 513.68,-245.37 517.03,-251.52"/>
</g>
<!-- Node12 -->
<g id="node12" class="node">
<title>Node12</title>
<g id="a_node12"><a xlink:title=" ">
<polygon fill="none" stroke="#bfbfbf" points="578.5,-224.5 578.5,-243.5 637.5,-243.5 637.5,-224.5 578.5,-224.5"/>
<text text-anchor="middle" x="608" y="-231.5" font-family="Helvetica,sans-Serif" font-size="10.00">stdexcept</text>
</a>
</g>
</g>
<!-- Node1&#45;&gt;Node12 -->
<g id="edge19" class="edge">
<title>Node1&#45;&gt;Node12</title>
<path fill="none" stroke="midnightblue" d="M467.46,-280.44C495.68,-271.32 540.54,-256.81 571.97,-246.65"/>
<polygon fill="midnightblue" stroke="midnightblue" points="573.22,-249.92 581.66,-243.52 571.07,-243.26 573.22,-249.92"/>
</g>
<!-- Node3 -->
<g id="node3" class="node">
<title>Node3</title>
<g id="a_node3"><a xlink:title=" ">
<polygon fill="none" stroke="#bfbfbf" points="401.5,-56.5 401.5,-75.5 452.5,-75.5 452.5,-56.5 401.5,-56.5"/>
<text text-anchor="middle" x="427" y="-63.5" font-family="Helvetica,sans-Serif" font-size="10.00">memory</text>
</a>
</g>
</g>
<!-- Node2&#45;&gt;Node3 -->
<g id="edge2" class="edge">
<title>Node2&#45;&gt;Node3</title>
<path fill="none" stroke="midnightblue" d="M336.35,-112.32C353.67,-103.66 380.52,-90.24 400.5,-80.25"/>
<polygon fill="midnightblue" stroke="midnightblue" points="402.31,-83.26 409.69,-75.65 399.18,-77 402.31,-83.26"/>
</g>
<!-- Node4 -->
<g id="node4" class="node">
<title>Node4</title>
<g id="a_node4"><a xlink:href="type__traits_8hpp.html" target="_top" xlink:title=" ">
<polygon fill="none" stroke="black" points="150,-56.5 150,-75.5 230,-75.5 230,-56.5 150,-56.5"/>
<text text-anchor="middle" x="190" y="-63.5" font-family="Helvetica,sans-Serif" font-size="10.00">type_traits.hpp</text>
</a>
</g>
</g>
<!-- Node2&#45;&gt;Node4 -->
<g id="edge3" class="edge">
<title>Node2&#45;&gt;Node4</title>
<path fill="none" stroke="midnightblue" d="M298.56,-112.44C277.33,-103.56 243.9,-89.56 219.75,-79.45"/>
<polygon fill="midnightblue" stroke="midnightblue" points="220.92,-76.15 210.34,-75.52 218.22,-82.61 220.92,-76.15"/>
</g>
<!-- Node6 -->
<g id="node6" class="node">
<title>Node6</title>
<g id="a_node6"><a xlink:href="reverse__iterator_8hpp.html" target="_top" xlink:title=" ">
<polygon fill="none" stroke="black" points="248.5,-56.5 248.5,-75.5 383.5,-75.5 383.5,-56.5 248.5,-56.5"/>
<text text-anchor="middle" x="316" y="-63.5" font-family="Helvetica,sans-Serif" font-size="10.00">iterator/reverse_iterator.hpp</text>
</a>
</g>
</g>
<!-- Node2&#45;&gt;Node6 -->
<g id="edge5" class="edge">
<title>Node2&#45;&gt;Node6</title>
<path fill="none" stroke="midnightblue" d="M318.5,-112.08C318.11,-105.01 317.55,-94.86 317.05,-85.99"/>
<polygon fill="midnightblue" stroke="midnightblue" points="320.54,-85.54 316.49,-75.75 313.55,-85.93 320.54,-85.54"/>
</g>
<!-- Node7 -->
<g id="node7" class="node">
<title>Node7</title>
<g id="a_node7"><a xlink:href="normal__iterator_8hpp.html" target="_top" xlink:title=" ">
<polygon fill="none" stroke="black" points="0,-56.5 0,-75.5 132,-75.5 132,-56.5 0,-56.5"/>
<text text-anchor="middle" x="66" y="-63.5" font-family="Helvetica,sans-Serif" font-size="10.00">iterator/normal_iterator.hpp</text>
</a>
</g>
</g>
<!-- Node2&#45;&gt;Node7 -->
<g id="edge6" class="edge">
<title>Node2&#45;&gt;Node7</title>
<path fill="none" stroke="midnightblue" d="M286.44,-114.05C243.24,-104.83 166.55,-88.46 115.99,-77.67"/>
<polygon fill="midnightblue" stroke="midnightblue" points="116.44,-74.19 105.93,-75.52 114.98,-81.03 116.44,-74.19"/>
</g>
<!-- Node5 -->
<g id="node5" class="node">
<title>Node5</title>
<g id="a_node5"><a xlink:title=" ">
<polygon fill="none" stroke="#bfbfbf" points="456.5,-0.5 456.5,-19.5 505.5,-19.5 505.5,-0.5 456.5,-0.5"/>
<text text-anchor="middle" x="481" y="-7.5" font-family="Helvetica,sans-Serif" font-size="10.00">cstddef</text>
</a>
</g>
</g>
<!-- Node4&#45;&gt;Node5 -->
<g id="edge4" class="edge">
<title>Node4&#45;&gt;Node5</title>
<path fill="none" stroke="midnightblue" d="M230.16,-57.55C287.46,-46.92 391.73,-27.56 446.03,-17.49"/>
<polygon fill="midnightblue" stroke="midnightblue" points="447,-20.87 456.19,-15.6 445.72,-13.99 447,-20.87"/>
</g>
<!-- Node8&#45;&gt;Node2 -->
<g id="edge13" class="edge">
<title>Node8&#45;&gt;Node2</title>
<path fill="none" stroke="midnightblue" d="M431.43,-224.37C410.85,-205.81 362.16,-161.91 336.12,-138.44"/>
<polygon fill="midnightblue" stroke="midnightblue" points="338.3,-135.69 328.53,-131.59 333.61,-140.89 338.3,-135.69"/>
</g>
<!-- Node8&#45;&gt;Node3 -->
<g id="edge14" class="edge">
<title>Node8&#45;&gt;Node3</title>
<path fill="none" stroke="midnightblue" d="M459.39,-224.47C473.1,-217 490.81,-204.71 499,-188 502.91,-180.02 501.71,-176.47 499,-168 488.08,-133.88 460.94,-101.45 443.28,-82.92"/>
<polygon fill="midnightblue" stroke="midnightblue" points="445.65,-80.34 436.14,-75.65 440.65,-85.24 445.65,-80.34"/>
</g>
<!-- Node8&#45;&gt;Node5 -->
<g id="edge8" class="edge">
<title>Node8&#45;&gt;Node5</title>
<path fill="none" stroke="midnightblue" d="M467.21,-224.41C483.85,-217.44 504.06,-205.81 514,-188 543.28,-135.56 510.02,-62.14 491.61,-28.77"/>
<polygon fill="midnightblue" stroke="midnightblue" points="494.46,-26.7 486.45,-19.76 488.38,-30.18 494.46,-26.7"/>
</g>
<!-- Node9 -->
<g id="node9" class="node">
<title>Node9</title>
<g id="a_node9"><a xlink:href="construct_8hpp.html" target="_top" xlink:title=" ">
<polygon fill="none" stroke="black" points="414.5,-168.5 414.5,-187.5 489.5,-187.5 489.5,-168.5 414.5,-168.5"/>
<text text-anchor="middle" x="452" y="-175.5" font-family="Helvetica,sans-Serif" font-size="10.00">construct.hpp</text>
</a>
</g>
</g>
<!-- Node8&#45;&gt;Node9 -->
<g id="edge9" class="edge">
<title>Node8&#45;&gt;Node9</title>
<path fill="none" stroke="midnightblue" d="M442.82,-224.08C444.27,-216.93 446.37,-206.64 448.19,-197.69"/>
<polygon fill="midnightblue" stroke="midnightblue" points="451.65,-198.25 450.22,-187.75 444.79,-196.85 451.65,-198.25"/>
</g>
<!-- Node9&#45;&gt;Node2 -->
<g id="edge11" class="edge">
<title>Node9&#45;&gt;Node2</title>
<path fill="none" stroke="midnightblue" d="M430.93,-168.44C408.94,-159.52 374.27,-145.44 349.34,-135.32"/>
<polygon fill="midnightblue" stroke="midnightblue" points="350.56,-132.04 339.98,-131.52 347.92,-138.52 350.56,-132.04"/>
</g>
<!-- Node9&#45;&gt;Node3 -->
<g id="edge12" class="edge">
<title>Node9&#45;&gt;Node3</title>
<path fill="none" stroke="midnightblue" d="M450.04,-168.37C446,-150.62 436.7,-109.67 431.23,-85.6"/>
<polygon fill="midnightblue" stroke="midnightblue" points="434.58,-84.57 428.95,-75.59 427.76,-86.12 434.58,-84.57"/>
</g>
<!-- Node9&#45;&gt;Node5 -->
<g id="edge10" class="edge">
<title>Node9&#45;&gt;Node5</title>
<path fill="none" stroke="midnightblue" d="M453.56,-168.08C458.12,-141.95 471.53,-65.21 477.75,-29.58"/>
<polygon fill="midnightblue" stroke="midnightblue" points="481.23,-30.02 479.5,-19.57 474.33,-28.82 481.23,-30.02"/>
</g>
<!-- Node10&#45;&gt;Node2 -->
<g id="edge16" class="edge">
<title>Node10&#45;&gt;Node2</title>
<path fill="none" stroke="midnightblue" d="M320.67,-168.08C320.41,-161.01 320.03,-150.86 319.7,-141.99"/>
<polygon fill="midnightblue" stroke="midnightblue" points="323.19,-141.61 319.32,-131.75 316.2,-141.87 323.19,-141.61"/>
</g>
<!-- Node10&#45;&gt;Node3 -->
<g id="edge17" class="edge">
<title>Node10&#45;&gt;Node3</title>
<path fill="none" stroke="midnightblue" d="M329.32,-168.37C347.04,-149.97 388.77,-106.67 411.53,-83.05"/>
<polygon fill="midnightblue" stroke="midnightblue" points="414.3,-85.22 418.72,-75.59 409.26,-80.36 414.3,-85.22"/>
</g>
</g>
</svg>
