<?xml version="1.0" encoding="UTF-8" standalone="no"?>
<!DOCTYPE svg PUBLIC "-//W3C//DTD SVG 1.1//EN"
 "http://www.w3.org/Graphics/SVG/1.1/DTD/svg11.dtd">
<!-- Generated by graphviz version 2.49.3 (20211027.1534)
 -->
<!-- Title: 类继承关系图 Pages: 1 -->
<svg width="444pt" height="132pt"
 viewBox="0.00 0.00 444.00 132.00" xmlns="http://www.w3.org/2000/svg" xmlns:xlink="http://www.w3.org/1999/xlink">
<g id="graph0" class="graph" transform="scale(1 1) rotate(0) translate(4 128)">
<title>类继承关系图</title>
<!-- Node0 -->
<g id="node1" class="node">
<title>Node0</title>
<g id="a_node1"><a xlink:href="structtstl_1_1iterator.html" target="_top" xlink:title=" ">
<polygon fill="none" stroke="black" points="0,-55.5 0,-96.5 108,-96.5 108,-55.5 0,-55.5"/>
<text text-anchor="start" x="8" y="-84.5" font-family="Helvetica,sans-Serif" font-size="10.00">tstl::iterator&lt; tstl</text>
<text text-anchor="start" x="8" y="-73.5" font-family="Helvetica,sans-Serif" font-size="10.00">::bidirectional_iterator</text>
<text text-anchor="middle" x="54" y="-62.5" font-family="Helvetica,sans-Serif" font-size="10.00">_tag, T &gt;</text>
</a>
</g>
</g>
<!-- Node1 -->
<g id="node2" class="node">
<title>Node1</title>
<g id="a_node2"><a xlink:href="structtstl_1_1list__const__iterator.html" target="_top" xlink:title=" ">
<polygon fill="none" stroke="black" points="144,-104.5 144,-123.5 278,-123.5 278,-104.5 144,-104.5"/>
<text text-anchor="middle" x="211" y="-111.5" font-family="Helvetica,sans-Serif" font-size="10.00">tstl::list_const_iterator&lt; T &gt;</text>
</a>
</g>
</g>
<!-- Node0&#45;&gt;Node1 -->
<g id="edge1" class="edge">
<title>Node0&#45;&gt;Node1</title>
<path fill="none" stroke="midnightblue" d="M118.19,-91.49C136.16,-95.9 155.19,-100.56 171.24,-104.5"/>
<polygon fill="midnightblue" stroke="midnightblue" points="118.89,-88.06 108.34,-89.08 117.22,-94.86 118.89,-88.06"/>
</g>
<!-- Node2 -->
<g id="node3" class="node">
<title>Node2</title>
<g id="a_node3"><a xlink:href="structtstl_1_1list__iterator.html" target="_top" xlink:title=" ">
<polygon fill="none" stroke="black" points="158.5,-66.5 158.5,-85.5 263.5,-85.5 263.5,-66.5 158.5,-66.5"/>
<text text-anchor="middle" x="211" y="-73.5" font-family="Helvetica,sans-Serif" font-size="10.00">tstl::list_iterator&lt; T &gt;</text>
</a>
</g>
</g>
<!-- Node0&#45;&gt;Node2 -->
<g id="edge2" class="edge">
<title>Node0&#45;&gt;Node2</title>
<path fill="none" stroke="midnightblue" d="M118.38,-76C131.69,-76 145.58,-76 158.39,-76"/>
<polygon fill="midnightblue" stroke="midnightblue" points="118.34,-72.5 108.34,-76 118.34,-79.5 118.34,-72.5"/>
</g>
<!-- Node3 -->
<g id="node4" class="node">
<title>Node3</title>
<g id="a_node4"><a xlink:href="structtstl_1_1rb__tree__iterator__base.html" target="_top" xlink:title=" ">
<polygon fill="none" stroke="black" points="161,-17 161,-47 261,-47 261,-17 161,-17"/>
<text text-anchor="start" x="169" y="-35" font-family="Helvetica,sans-Serif" font-size="10.00">tstl::rb_tree_iterator</text>
<text text-anchor="middle" x="211" y="-24" font-family="Helvetica,sans-Serif" font-size="10.00">_base&lt; T &gt;</text>
</a>
</g>
</g>
<!-- Node0&#45;&gt;Node3 -->
<g id="edge3" class="edge">
<title>Node0&#45;&gt;Node3</title>
<path fill="none" stroke="midnightblue" d="M118.11,-58.09C132.4,-54.03 147.37,-49.78 160.99,-45.91"/>
<polygon fill="midnightblue" stroke="midnightblue" points="117.01,-54.76 108.34,-60.86 118.92,-61.49 117.01,-54.76"/>
</g>
<!-- Node4 -->
<g id="node5" class="node">
<title>Node4</title>
<g id="a_node5"><a xlink:href="structtstl_1_1rb__tree__const__iterator.html" target="_top" xlink:title=" ">
<polygon fill="none" stroke="black" points="328,-39 328,-69 422,-69 422,-39 328,-39"/>
<text text-anchor="start" x="336" y="-57" font-family="Helvetica,sans-Serif" font-size="10.00">tstl::rb_tree_const</text>
<text text-anchor="middle" x="375" y="-46" font-family="Helvetica,sans-Serif" font-size="10.00">_iterator&lt; T &gt;</text>
</a>
</g>
</g>
<!-- Node3&#45;&gt;Node4 -->
<g id="edge4" class="edge">
<title>Node3&#45;&gt;Node4</title>
<path fill="none" stroke="midnightblue" d="M270.97,-40.01C289.72,-42.55 310.18,-45.33 327.89,-47.74"/>
<polygon fill="midnightblue" stroke="midnightblue" points="271.43,-36.54 261.04,-38.66 270.48,-43.47 271.43,-36.54"/>
</g>
<!-- Node5 -->
<g id="node6" class="node">
<title>Node5</title>
<g id="a_node6"><a xlink:href="structtstl_1_1rb__tree__iterator.html" target="_top" xlink:title=" ">
<polygon fill="none" stroke="black" points="314,-0.5 314,-19.5 436,-19.5 436,-0.5 314,-0.5"/>
<text text-anchor="middle" x="375" y="-7.5" font-family="Helvetica,sans-Serif" font-size="10.00">tstl::rb_tree_iterator&lt; T &gt;</text>
</a>
</g>
</g>
<!-- Node3&#45;&gt;Node5 -->
<g id="edge5" class="edge">
<title>Node3&#45;&gt;Node5</title>
<path fill="none" stroke="midnightblue" d="M271.03,-23.98C285.01,-22.08 299.94,-20.06 313.96,-18.15"/>
<polygon fill="midnightblue" stroke="midnightblue" points="270.48,-20.53 261.04,-25.34 271.43,-27.46 270.48,-20.53"/>
</g>
</g>
</svg>
