<?xml version="1.0" encoding="UTF-8" standalone="no"?>
<!DOCTYPE svg PUBLIC "-//W3C//DTD SVG 1.1//EN"
 "http://www.w3.org/Graphics/SVG/1.1/DTD/svg11.dtd">
<!-- Generated by graphviz version 2.49.3 (20211027.1534)
 -->
<!-- Title: 类继承关系图 Pages: 1 -->
<svg width="242pt" height="78pt"
 viewBox="0.00 0.00 242.00 77.50" xmlns="http://www.w3.org/2000/svg" xmlns:xlink="http://www.w3.org/1999/xlink">
<g id="graph0" class="graph" transform="scale(1 1) rotate(0) translate(4 73.5)">
<title>类继承关系图</title>
<!-- Node0 -->
<g id="node1" class="node">
<title>Node0</title>
<g id="a_node1"><a xlink:href="structtstl_1_1integral__constant.html" target="_top" xlink:title=" ">
<polygon fill="none" stroke="black" points="0,-22.5 0,-52.5 109,-52.5 109,-22.5 0,-22.5"/>
<text text-anchor="start" x="8" y="-40.5" font-family="Helvetica,sans-Serif" font-size="10.00">tstl::integral_constant</text>
<text text-anchor="middle" x="54.5" y="-29.5" font-family="Helvetica,sans-Serif" font-size="10.00">&lt; T, v &gt;</text>
</a>
</g>
</g>
<!-- Node1 -->
<g id="node2" class="node">
<title>Node1</title>
<g id="a_node2"><a xlink:href="structtstl_1_1is__pair.html" target="_top" xlink:title=" ">
<polygon fill="none" stroke="black" points="146.5,-50 146.5,-69 232.5,-69 232.5,-50 146.5,-50"/>
<text text-anchor="middle" x="189.5" y="-57" font-family="Helvetica,sans-Serif" font-size="10.00">tstl::is_pair&lt; T &gt;</text>
</a>
</g>
</g>
<!-- Node0&#45;&gt;Node1 -->
<g id="edge1" class="edge">
<title>Node0&#45;&gt;Node1</title>
<path fill="none" stroke="midnightblue" d="M119.19,-48.04C128.44,-49.57 137.77,-51.11 146.45,-52.54"/>
<polygon fill="midnightblue" stroke="midnightblue" points="119.65,-44.56 109.21,-46.38 118.51,-51.47 119.65,-44.56"/>
</g>
<!-- Node2 -->
<g id="node3" class="node">
<title>Node2</title>
<g id="a_node3"><a xlink:href="structtstl_1_1is__pair_3_01std_1_1pair_3_01_t1_00_01_t2_01_4_01_4.html" target="_top" xlink:title=" ">
<polygon fill="none" stroke="black" points="145,-0.5 145,-30.5 234,-30.5 234,-0.5 145,-0.5"/>
<text text-anchor="start" x="153" y="-18.5" font-family="Helvetica,sans-Serif" font-size="10.00">tstl::is_pair&lt; std</text>
<text text-anchor="middle" x="189.5" y="-7.5" font-family="Helvetica,sans-Serif" font-size="10.00">::pair&lt; T1, T2 &gt; &gt;</text>
</a>
</g>
</g>
<!-- Node0&#45;&gt;Node2 -->
<g id="edge2" class="edge">
<title>Node0&#45;&gt;Node2</title>
<path fill="none" stroke="midnightblue" d="M119.29,-26.95C127.92,-25.52 136.62,-24.08 144.79,-22.73"/>
<polygon fill="midnightblue" stroke="midnightblue" points="118.51,-23.53 109.21,-28.62 119.65,-30.44 118.51,-23.53"/>
</g>
</g>
</svg>
