<?xml version="1.0" encoding="UTF-8" standalone="no"?>
<!DOCTYPE svg PUBLIC "-//W3C//DTD SVG 1.1//EN"
 "http://www.w3.org/Graphics/SVG/1.1/DTD/svg11.dtd">
<!-- Generated by graphviz version 2.49.3 (20211027.1534)
 -->
<!-- Title: list.hpp Pages: 1 -->
<svg width="533pt" height="252pt"
 viewBox="0.00 0.00 532.50 252.00" xmlns="http://www.w3.org/2000/svg" xmlns:xlink="http://www.w3.org/1999/xlink">
<g id="graph0" class="graph" transform="scale(1 1) rotate(0) translate(4 248)">
<title>list.hpp</title>
<!-- Node1 -->
<g id="node1" class="node">
<title>Node1</title>
<g id="a_node1"><a xlink:title=" ">
<polygon fill="#bfbfbf" stroke="black" points="145,-224.5 145,-243.5 192,-243.5 192,-224.5 145,-224.5"/>
<text text-anchor="middle" x="168.5" y="-231.5" font-family="Helvetica,sans-Serif" font-size="10.00">list.hpp</text>
</a>
</g>
</g>
<!-- Node2 -->
<g id="node2" class="node">
<title>Node2</title>
<g id="a_node2"><a xlink:href="construct_8hpp.html" target="_top" xlink:title=" ">
<polygon fill="none" stroke="black" points="0,-168.5 0,-187.5 113,-187.5 113,-168.5 0,-168.5"/>
<text text-anchor="middle" x="56.5" y="-175.5" font-family="Helvetica,sans-Serif" font-size="10.00">memory/construct.hpp</text>
</a>
</g>
</g>
<!-- Node1&#45;&gt;Node2 -->
<g id="edge1" class="edge">
<title>Node1&#45;&gt;Node2</title>
<path fill="none" stroke="midnightblue" d="M150.51,-224.32C132.46,-215.62 104.45,-202.12 83.7,-192.11"/>
<polygon fill="midnightblue" stroke="midnightblue" points="84.98,-188.84 74.45,-187.65 81.94,-195.15 84.98,-188.84"/>
</g>
<!-- Node4 -->
<g id="node4" class="node">
<title>Node4</title>
<g id="a_node4"><a xlink:href="iterator_8hpp.html" target="_top" xlink:title=" ">
<polygon fill="none" stroke="black" points="146.5,-112.5 146.5,-131.5 218.5,-131.5 218.5,-112.5 146.5,-112.5"/>
<text text-anchor="middle" x="182.5" y="-119.5" font-family="Helvetica,sans-Serif" font-size="10.00">../iterator.hpp</text>
</a>
</g>
</g>
<!-- Node1&#45;&gt;Node4 -->
<g id="edge10" class="edge">
<title>Node1&#45;&gt;Node4</title>
<path fill="none" stroke="midnightblue" d="M182.29,-224.19C193.33,-216.24 208,-203.45 214.5,-188 221.62,-171.07 210.21,-152.31 199.09,-139.31"/>
<polygon fill="midnightblue" stroke="midnightblue" points="201.38,-136.64 192.02,-131.68 196.25,-141.39 201.38,-136.64"/>
</g>
<!-- Node9 -->
<g id="node9" class="node">
<title>Node9</title>
<g id="a_node9"><a xlink:href="algorithm_8hpp.html" target="_top" xlink:title=" ">
<polygon fill="none" stroke="black" points="131.5,-168.5 131.5,-187.5 205.5,-187.5 205.5,-168.5 131.5,-168.5"/>
<text text-anchor="middle" x="168.5" y="-175.5" font-family="Helvetica,sans-Serif" font-size="10.00">algorithm.hpp</text>
</a>
</g>
</g>
<!-- Node1&#45;&gt;Node9 -->
<g id="edge11" class="edge">
<title>Node1&#45;&gt;Node9</title>
<path fill="none" stroke="midnightblue" d="M168.5,-224.08C168.5,-217.01 168.5,-206.86 168.5,-197.99"/>
<polygon fill="midnightblue" stroke="midnightblue" points="172,-197.75 168.5,-187.75 165,-197.75 172,-197.75"/>
</g>
<!-- Node3 -->
<g id="node3" class="node">
<title>Node3</title>
<g id="a_node3"><a xlink:title=" ">
<polygon fill="none" stroke="#bfbfbf" points="87,-0.5 87,-19.5 136,-19.5 136,-0.5 87,-0.5"/>
<text text-anchor="middle" x="111.5" y="-7.5" font-family="Helvetica,sans-Serif" font-size="10.00">cstddef</text>
</a>
</g>
</g>
<!-- Node2&#45;&gt;Node3 -->
<g id="edge2" class="edge">
<title>Node2&#45;&gt;Node3</title>
<path fill="none" stroke="midnightblue" d="M54.66,-168.25C50.76,-147.55 43.42,-94.43 61.5,-56 67.32,-43.62 78.29,-33.14 88.48,-25.42"/>
<polygon fill="midnightblue" stroke="midnightblue" points="90.57,-28.23 96.72,-19.6 86.53,-22.51 90.57,-28.23"/>
</g>
<!-- Node2&#45;&gt;Node4 -->
<g id="edge3" class="edge">
<title>Node2&#45;&gt;Node4</title>
<path fill="none" stroke="midnightblue" d="M76.47,-168.44C97.11,-159.6 129.56,-145.69 153.13,-135.59"/>
<polygon fill="midnightblue" stroke="midnightblue" points="154.82,-138.67 162.63,-131.52 152.06,-132.24 154.82,-138.67"/>
</g>
<!-- Node5 -->
<g id="node5" class="node">
<title>Node5</title>
<g id="a_node5"><a xlink:title=" ">
<polygon fill="none" stroke="#bfbfbf" points="71,-56.5 71,-75.5 122,-75.5 122,-56.5 71,-56.5"/>
<text text-anchor="middle" x="96.5" y="-63.5" font-family="Helvetica,sans-Serif" font-size="10.00">memory</text>
</a>
</g>
</g>
<!-- Node2&#45;&gt;Node5 -->
<g id="edge9" class="edge">
<title>Node2&#45;&gt;Node5</title>
<path fill="none" stroke="midnightblue" d="M59.64,-168.37C66.12,-150.54 81.12,-109.3 89.86,-85.27"/>
<polygon fill="midnightblue" stroke="midnightblue" points="93.25,-86.19 93.38,-75.59 86.67,-83.79 93.25,-86.19"/>
</g>
<!-- Node4&#45;&gt;Node5 -->
<g id="edge4" class="edge">
<title>Node4&#45;&gt;Node5</title>
<path fill="none" stroke="midnightblue" d="M168.68,-112.32C155.27,-103.9 134.68,-90.97 118.91,-81.07"/>
<polygon fill="midnightblue" stroke="midnightblue" points="120.61,-78.01 110.28,-75.65 116.89,-83.94 120.61,-78.01"/>
</g>
<!-- Node6 -->
<g id="node6" class="node">
<title>Node6</title>
<g id="a_node6"><a xlink:href="type__traits_8hpp.html" target="_top" xlink:title=" ">
<polygon fill="none" stroke="black" points="140.5,-56.5 140.5,-75.5 220.5,-75.5 220.5,-56.5 140.5,-56.5"/>
<text text-anchor="middle" x="180.5" y="-63.5" font-family="Helvetica,sans-Serif" font-size="10.00">type_traits.hpp</text>
</a>
</g>
</g>
<!-- Node4&#45;&gt;Node6 -->
<g id="edge5" class="edge">
<title>Node4&#45;&gt;Node6</title>
<path fill="none" stroke="midnightblue" d="M182.17,-112.08C181.91,-105.01 181.53,-94.86 181.2,-85.99"/>
<polygon fill="midnightblue" stroke="midnightblue" points="184.69,-85.61 180.82,-75.75 177.7,-85.87 184.69,-85.61"/>
</g>
<!-- Node7 -->
<g id="node7" class="node">
<title>Node7</title>
<g id="a_node7"><a xlink:href="reverse__iterator_8hpp.html" target="_top" xlink:title=" ">
<polygon fill="none" stroke="black" points="239,-56.5 239,-75.5 374,-75.5 374,-56.5 239,-56.5"/>
<text text-anchor="middle" x="306.5" y="-63.5" font-family="Helvetica,sans-Serif" font-size="10.00">iterator/reverse_iterator.hpp</text>
</a>
</g>
</g>
<!-- Node4&#45;&gt;Node7 -->
<g id="edge7" class="edge">
<title>Node4&#45;&gt;Node7</title>
<path fill="none" stroke="midnightblue" d="M202.15,-112.44C222.46,-103.6 254.4,-89.69 277.6,-79.59"/>
<polygon fill="midnightblue" stroke="midnightblue" points="279.17,-82.72 286.94,-75.52 276.38,-76.3 279.17,-82.72"/>
</g>
<!-- Node8 -->
<g id="node8" class="node">
<title>Node8</title>
<g id="a_node8"><a xlink:href="normal__iterator_8hpp.html" target="_top" xlink:title=" ">
<polygon fill="none" stroke="black" points="392.5,-56.5 392.5,-75.5 524.5,-75.5 524.5,-56.5 392.5,-56.5"/>
<text text-anchor="middle" x="458.5" y="-63.5" font-family="Helvetica,sans-Serif" font-size="10.00">iterator/normal_iterator.hpp</text>
</a>
</g>
</g>
<!-- Node4&#45;&gt;Node8 -->
<g id="edge8" class="edge">
<title>Node4&#45;&gt;Node8</title>
<path fill="none" stroke="midnightblue" d="M218.58,-113.94C266.04,-104.66 349.83,-88.26 404.76,-77.51"/>
<polygon fill="midnightblue" stroke="midnightblue" points="405.53,-80.93 414.67,-75.58 404.18,-74.06 405.53,-80.93"/>
</g>
<!-- Node6&#45;&gt;Node3 -->
<g id="edge6" class="edge">
<title>Node6&#45;&gt;Node3</title>
<path fill="none" stroke="midnightblue" d="M169.41,-56.32C159.01,-48.18 143.24,-35.84 130.78,-26.09"/>
<polygon fill="midnightblue" stroke="midnightblue" points="132.82,-23.24 122.79,-19.83 128.51,-28.75 132.82,-23.24"/>
</g>
<!-- Node9&#45;&gt;Node4 -->
<g id="edge12" class="edge">
<title>Node9&#45;&gt;Node4</title>
<path fill="none" stroke="midnightblue" d="M170.81,-168.08C172.67,-160.93 175.34,-150.64 177.65,-141.69"/>
<polygon fill="midnightblue" stroke="midnightblue" points="181.11,-142.31 180.23,-131.75 174.33,-140.55 181.11,-142.31"/>
</g>
<!-- Node9&#45;&gt;Node5 -->
<g id="edge13" class="edge">
<title>Node9&#45;&gt;Node5</title>
<path fill="none" stroke="midnightblue" d="M162.45,-168.44C156.13,-159.44 145.96,-144.83 137.5,-132 126.98,-116.05 115.4,-97.6 107.23,-84.44"/>
<polygon fill="midnightblue" stroke="midnightblue" points="110.19,-82.57 101.96,-75.9 104.24,-86.25 110.19,-82.57"/>
</g>
</g>
</svg>
