<?xml version="1.0" encoding="UTF-8" standalone="no"?>
<!DOCTYPE svg PUBLIC "-//W3C//DTD SVG 1.1//EN"
 "http://www.w3.org/Graphics/SVG/1.1/DTD/svg11.dtd">
<!-- Generated by graphviz version 2.49.3 (20211027.1534)
 -->
<!-- Title: rbtree.hpp Pages: 1 -->
<svg width="511pt" height="252pt"
 viewBox="0.00 0.00 510.50 252.00" xmlns="http://www.w3.org/2000/svg" xmlns:xlink="http://www.w3.org/1999/xlink">
<g id="graph0" class="graph" transform="scale(1 1) rotate(0) translate(4 248)">
<title>rbtree.hpp</title>
<!-- Node1 -->
<g id="node1" class="node">
<title>Node1</title>
<g id="a_node1"><a xlink:title=" ">
<polygon fill="#bfbfbf" stroke="black" points="145,-224.5 145,-243.5 204,-243.5 204,-224.5 145,-224.5"/>
<text text-anchor="middle" x="174.5" y="-231.5" font-family="Helvetica,sans-Serif" font-size="10.00">rbtree.hpp</text>
</a>
</g>
</g>
<!-- Node2 -->
<g id="node2" class="node">
<title>Node2</title>
<g id="a_node2"><a xlink:title=" ">
<polygon fill="none" stroke="#bfbfbf" points="0,-168.5 0,-187.5 49,-187.5 49,-168.5 0,-168.5"/>
<text text-anchor="middle" x="24.5" y="-175.5" font-family="Helvetica,sans-Serif" font-size="10.00">cassert</text>
</a>
</g>
</g>
<!-- Node1&#45;&gt;Node2 -->
<g id="edge1" class="edge">
<title>Node1&#45;&gt;Node2</title>
<path fill="none" stroke="midnightblue" d="M150.73,-224.44C125.61,-215.4 85.79,-201.06 57.6,-190.92"/>
<polygon fill="midnightblue" stroke="midnightblue" points="58.75,-187.61 48.16,-187.52 56.38,-194.2 58.75,-187.61"/>
</g>
<!-- Node3 -->
<g id="node3" class="node">
<title>Node3</title>
<g id="a_node3"><a xlink:title=" ">
<polygon fill="none" stroke="#bfbfbf" points="50,-56.5 50,-75.5 101,-75.5 101,-56.5 50,-56.5"/>
<text text-anchor="middle" x="75.5" y="-63.5" font-family="Helvetica,sans-Serif" font-size="10.00">memory</text>
</a>
</g>
</g>
<!-- Node1&#45;&gt;Node3 -->
<g id="edge2" class="edge">
<title>Node1&#45;&gt;Node3</title>
<path fill="none" stroke="midnightblue" d="M147.94,-224.41C130.55,-217.38 108.85,-205.69 96.5,-188 74.9,-157.08 73.13,-111.11 74.09,-85.66"/>
<polygon fill="midnightblue" stroke="midnightblue" points="77.59,-85.72 74.66,-75.54 70.6,-85.32 77.59,-85.72"/>
</g>
<!-- Node4 -->
<g id="node4" class="node">
<title>Node4</title>
<g id="a_node4"><a xlink:title=" ">
<polygon fill="none" stroke="#bfbfbf" points="276,-168.5 276,-187.5 335,-187.5 335,-168.5 276,-168.5"/>
<text text-anchor="middle" x="305.5" y="-175.5" font-family="Helvetica,sans-Serif" font-size="10.00">memory.h</text>
</a>
</g>
</g>
<!-- Node1&#45;&gt;Node4 -->
<g id="edge3" class="edge">
<title>Node1&#45;&gt;Node4</title>
<path fill="none" stroke="midnightblue" d="M195.26,-224.44C216.82,-215.56 250.76,-201.56 275.29,-191.45"/>
<polygon fill="midnightblue" stroke="midnightblue" points="276.93,-194.56 284.84,-187.52 274.26,-188.09 276.93,-194.56"/>
</g>
<!-- Node5 -->
<g id="node5" class="node">
<title>Node5</title>
<g id="a_node5"><a xlink:href="iterator_8hpp.html" target="_top" xlink:title=" ">
<polygon fill="none" stroke="black" points="154,-112.5 154,-131.5 219,-131.5 219,-112.5 154,-112.5"/>
<text text-anchor="middle" x="186.5" y="-119.5" font-family="Helvetica,sans-Serif" font-size="10.00">iterator.hpp</text>
</a>
</g>
</g>
<!-- Node1&#45;&gt;Node5 -->
<g id="edge4" class="edge">
<title>Node1&#45;&gt;Node5</title>
<path fill="none" stroke="midnightblue" d="M178.1,-224.22C181.56,-215.28 186.53,-200.94 188.5,-188 190.84,-172.63 190.08,-155 188.88,-141.97"/>
<polygon fill="midnightblue" stroke="midnightblue" points="192.35,-141.45 187.78,-131.89 185.39,-142.21 192.35,-141.45"/>
</g>
<!-- Node6 -->
<g id="node6" class="node">
<title>Node6</title>
<g id="a_node6"><a xlink:href="type__traits_8hpp.html" target="_top" xlink:title=" ">
<polygon fill="none" stroke="black" points="422.5,-56.5 422.5,-75.5 502.5,-75.5 502.5,-56.5 422.5,-56.5"/>
<text text-anchor="middle" x="462.5" y="-63.5" font-family="Helvetica,sans-Serif" font-size="10.00">type_traits.hpp</text>
</a>
</g>
</g>
<!-- Node1&#45;&gt;Node6 -->
<g id="edge10" class="edge">
<title>Node1&#45;&gt;Node6</title>
<path fill="none" stroke="midnightblue" d="M185.63,-224.5C202.76,-211.58 236.82,-186.55 267.5,-168 325.15,-133.13 396.12,-98.28 434.56,-80.03"/>
<polygon fill="midnightblue" stroke="midnightblue" points="436.5,-82.98 444.05,-75.55 433.51,-76.65 436.5,-82.98"/>
</g>
<!-- Node10 -->
<g id="node10" class="node">
<title>Node10</title>
<g id="a_node10"><a xlink:href="algorithm_8hpp.html" target="_top" xlink:title=" ">
<polygon fill="none" stroke="black" points="105.5,-168.5 105.5,-187.5 179.5,-187.5 179.5,-168.5 105.5,-168.5"/>
<text text-anchor="middle" x="142.5" y="-175.5" font-family="Helvetica,sans-Serif" font-size="10.00">algorithm.hpp</text>
</a>
</g>
</g>
<!-- Node1&#45;&gt;Node10 -->
<g id="edge11" class="edge">
<title>Node1&#45;&gt;Node10</title>
<path fill="none" stroke="midnightblue" d="M169.22,-224.08C164.79,-216.61 158.34,-205.72 152.88,-196.52"/>
<polygon fill="midnightblue" stroke="midnightblue" points="155.79,-194.57 147.69,-187.75 149.77,-198.14 155.79,-194.57"/>
</g>
<!-- Node5&#45;&gt;Node3 -->
<g id="edge5" class="edge">
<title>Node5&#45;&gt;Node3</title>
<path fill="none" stroke="midnightblue" d="M168.67,-112.32C150.78,-103.62 123.02,-90.12 102.45,-80.11"/>
<polygon fill="midnightblue" stroke="midnightblue" points="103.81,-76.88 93.29,-75.65 100.75,-83.18 103.81,-76.88"/>
</g>
<!-- Node5&#45;&gt;Node6 -->
<g id="edge6" class="edge">
<title>Node5&#45;&gt;Node6</title>
<path fill="none" stroke="midnightblue" d="M219.24,-114.59C266.97,-105.26 356.03,-87.83 412.13,-76.85"/>
<polygon fill="midnightblue" stroke="midnightblue" points="413.07,-80.24 422.21,-74.88 411.72,-73.37 413.07,-80.24"/>
</g>
<!-- Node8 -->
<g id="node8" class="node">
<title>Node8</title>
<g id="a_node8"><a xlink:href="reverse__iterator_8hpp.html" target="_top" xlink:title=" ">
<polygon fill="none" stroke="black" points="119,-56.5 119,-75.5 254,-75.5 254,-56.5 119,-56.5"/>
<text text-anchor="middle" x="186.5" y="-63.5" font-family="Helvetica,sans-Serif" font-size="10.00">iterator/reverse_iterator.hpp</text>
</a>
</g>
</g>
<!-- Node5&#45;&gt;Node8 -->
<g id="edge8" class="edge">
<title>Node5&#45;&gt;Node8</title>
<path fill="none" stroke="midnightblue" d="M186.5,-112.08C186.5,-105.01 186.5,-94.86 186.5,-85.99"/>
<polygon fill="midnightblue" stroke="midnightblue" points="190,-85.75 186.5,-75.75 183,-85.75 190,-85.75"/>
</g>
<!-- Node9 -->
<g id="node9" class="node">
<title>Node9</title>
<g id="a_node9"><a xlink:href="normal__iterator_8hpp.html" target="_top" xlink:title=" ">
<polygon fill="none" stroke="black" points="272.5,-56.5 272.5,-75.5 404.5,-75.5 404.5,-56.5 272.5,-56.5"/>
<text text-anchor="middle" x="338.5" y="-63.5" font-family="Helvetica,sans-Serif" font-size="10.00">iterator/normal_iterator.hpp</text>
</a>
</g>
</g>
<!-- Node5&#45;&gt;Node9 -->
<g id="edge9" class="edge">
<title>Node5&#45;&gt;Node9</title>
<path fill="none" stroke="midnightblue" d="M210.58,-112.44C236.04,-103.4 276.39,-89.06 304.96,-78.92"/>
<polygon fill="midnightblue" stroke="midnightblue" points="306.28,-82.16 314.53,-75.52 303.93,-75.57 306.28,-82.16"/>
</g>
<!-- Node7 -->
<g id="node7" class="node">
<title>Node7</title>
<g id="a_node7"><a xlink:title=" ">
<polygon fill="none" stroke="#bfbfbf" points="438,-0.5 438,-19.5 487,-19.5 487,-0.5 438,-0.5"/>
<text text-anchor="middle" x="462.5" y="-7.5" font-family="Helvetica,sans-Serif" font-size="10.00">cstddef</text>
</a>
</g>
</g>
<!-- Node6&#45;&gt;Node7 -->
<g id="edge7" class="edge">
<title>Node6&#45;&gt;Node7</title>
<path fill="none" stroke="midnightblue" d="M462.5,-56.08C462.5,-49.01 462.5,-38.86 462.5,-29.99"/>
<polygon fill="midnightblue" stroke="midnightblue" points="466,-29.75 462.5,-19.75 459,-29.75 466,-29.75"/>
</g>
<!-- Node10&#45;&gt;Node3 -->
<g id="edge13" class="edge">
<title>Node10&#45;&gt;Node3</title>
<path fill="none" stroke="midnightblue" d="M137.24,-168.37C126.23,-150.3 100.58,-108.18 86.04,-84.31"/>
<polygon fill="midnightblue" stroke="midnightblue" points="88.92,-82.31 80.73,-75.59 82.95,-85.95 88.92,-82.31"/>
</g>
<!-- Node10&#45;&gt;Node5 -->
<g id="edge12" class="edge">
<title>Node10&#45;&gt;Node5</title>
<path fill="none" stroke="midnightblue" d="M149.77,-168.08C156.04,-160.38 165.29,-149.03 172.93,-139.65"/>
<polygon fill="midnightblue" stroke="midnightblue" points="175.77,-141.71 179.37,-131.75 170.34,-137.29 175.77,-141.71"/>
</g>
</g>
</svg>
