<?xml version="1.0" encoding="UTF-8" standalone="no"?>
<!DOCTYPE svg PUBLIC "-//W3C//DTD SVG 1.1//EN"
 "http://www.w3.org/Graphics/SVG/1.1/DTD/svg11.dtd">
<!-- Generated by graphviz version 2.49.3 (20211027.1534)
 -->
<!-- Title: reverse_iterator.hpp Pages: 1 -->
<svg width="449pt" height="252pt"
 viewBox="0.00 0.00 449.14 252.00" xmlns="http://www.w3.org/2000/svg" xmlns:xlink="http://www.w3.org/1999/xlink">
<g id="graph0" class="graph" transform="scale(1 1) rotate(0) translate(4 248)">
<title>reverse_iterator.hpp</title>
<!-- Node1 -->
<g id="node1" class="node">
<title>Node1</title>
<g id="a_node1"><a xlink:title=" ">
<polygon fill="#bfbfbf" stroke="black" points="197,-224.5 197,-243.5 299,-243.5 299,-224.5 197,-224.5"/>
<text text-anchor="middle" x="248" y="-231.5" font-family="Helvetica,sans-Serif" font-size="10.00">reverse_iterator.hpp</text>
</a>
</g>
</g>
<!-- Node2 -->
<g id="node2" class="node">
<title>Node2</title>
<g id="a_node2"><a xlink:href="iterator_8hpp.html" target="_top" xlink:title=" ">
<polygon fill="none" stroke="black" points="215.5,-168.5 215.5,-187.5 280.5,-187.5 280.5,-168.5 215.5,-168.5"/>
<text text-anchor="middle" x="248" y="-175.5" font-family="Helvetica,sans-Serif" font-size="10.00">iterator.hpp</text>
</a>
</g>
</g>
<!-- Node1&#45;&gt;Node2 -->
<g id="edge1" class="edge">
<title>Node1&#45;&gt;Node2</title>
<path fill="none" stroke="midnightblue" d="M248,-213.8C248,-204.91 248,-194.78 248,-187.75"/>
<polygon fill="midnightblue" stroke="midnightblue" points="244.5,-214.08 248,-224.08 251.5,-214.08 244.5,-214.08"/>
</g>
<!-- Node3 -->
<g id="node3" class="node">
<title>Node3</title>
<g id="a_node3"><a xlink:href="algorithm_8hpp.html" target="_top" xlink:title=" ">
<polygon fill="none" stroke="black" points="127,-112.5 127,-131.5 201,-131.5 201,-112.5 127,-112.5"/>
<text text-anchor="middle" x="164" y="-119.5" font-family="Helvetica,sans-Serif" font-size="10.00">algorithm.hpp</text>
</a>
</g>
</g>
<!-- Node2&#45;&gt;Node3 -->
<g id="edge2" class="edge">
<title>Node2&#45;&gt;Node3</title>
<path fill="none" stroke="midnightblue" d="M226.07,-162.9C210.66,-153 190.55,-140.07 177.46,-131.65"/>
<polygon fill="midnightblue" stroke="midnightblue" points="224.2,-165.86 234.5,-168.32 227.98,-159.97 224.2,-165.86"/>
</g>
<!-- Node4 -->
<g id="node4" class="node">
<title>Node4</title>
<g id="a_node4"><a xlink:href="deque_8hpp.html" target="_top" xlink:title=" ">
<polygon fill="none" stroke="black" points="102.5,-0.5 102.5,-19.5 163.5,-19.5 163.5,-0.5 102.5,-0.5"/>
<text text-anchor="middle" x="133" y="-7.5" font-family="Helvetica,sans-Serif" font-size="10.00">deque.hpp</text>
</a>
</g>
</g>
<!-- Node2&#45;&gt;Node4 -->
<g id="edge14" class="edge">
<title>Node2&#45;&gt;Node4</title>
<path fill="none" stroke="midnightblue" d="M205.19,-174.59C175.4,-170.42 137.64,-159.58 118,-132 92.95,-96.82 117.35,-40.87 128.29,-19.6"/>
<polygon fill="midnightblue" stroke="midnightblue" points="205,-178.1 215.35,-175.81 205.83,-171.15 205,-178.1"/>
</g>
<!-- Node5 -->
<g id="node5" class="node">
<title>Node5</title>
<g id="a_node5"><a xlink:href="list_8hpp.html" target="_top" xlink:title=" ">
<polygon fill="none" stroke="black" points="276.5,-56.5 276.5,-75.5 323.5,-75.5 323.5,-56.5 276.5,-56.5"/>
<text text-anchor="middle" x="300" y="-63.5" font-family="Helvetica,sans-Serif" font-size="10.00">list.hpp</text>
</a>
</g>
</g>
<!-- Node2&#45;&gt;Node5 -->
<g id="edge15" class="edge">
<title>Node2&#45;&gt;Node5</title>
<path fill="none" stroke="midnightblue" d="M256.36,-159.32C267.68,-135.37 287.45,-93.55 295.94,-75.59"/>
<polygon fill="midnightblue" stroke="midnightblue" points="253.19,-157.83 252.08,-168.37 259.52,-160.82 253.19,-157.83"/>
</g>
<!-- Node6 -->
<g id="node6" class="node">
<title>Node6</title>
<g id="a_node6"><a xlink:href="rbtree_8hpp.html" target="_top" xlink:title=" ">
<polygon fill="none" stroke="black" points="7.5,-56.5 7.5,-75.5 66.5,-75.5 66.5,-56.5 7.5,-56.5"/>
<text text-anchor="middle" x="37" y="-63.5" font-family="Helvetica,sans-Serif" font-size="10.00">rbtree.hpp</text>
</a>
</g>
</g>
<!-- Node2&#45;&gt;Node6 -->
<g id="edge16" class="edge">
<title>Node2&#45;&gt;Node6</title>
<path fill="none" stroke="midnightblue" d="M205.13,-173.75C169.13,-169.2 117.83,-158.26 81,-132 60.36,-117.28 46.49,-89.64 40.44,-75.62"/>
<polygon fill="midnightblue" stroke="midnightblue" points="204.98,-177.26 215.31,-174.92 205.78,-170.3 204.98,-177.26"/>
</g>
<!-- Node8 -->
<g id="node8" class="node">
<title>Node8</title>
<g id="a_node8"><a xlink:href="stack_8hpp.html" target="_top" xlink:title=" ">
<polygon fill="none" stroke="black" points="199.5,-56.5 199.5,-75.5 258.5,-75.5 258.5,-56.5 199.5,-56.5"/>
<text text-anchor="middle" x="229" y="-63.5" font-family="Helvetica,sans-Serif" font-size="10.00">stack.hpp</text>
</a>
</g>
</g>
<!-- Node2&#45;&gt;Node8 -->
<g id="edge17" class="edge">
<title>Node2&#45;&gt;Node8</title>
<path fill="none" stroke="midnightblue" d="M244.78,-158.35C240.62,-134.25 233.54,-93.31 230.48,-75.59"/>
<polygon fill="midnightblue" stroke="midnightblue" points="241.36,-159.11 246.51,-168.37 248.26,-157.92 241.36,-159.11"/>
</g>
<!-- Node9 -->
<g id="node9" class="node">
<title>Node9</title>
<g id="a_node9"><a xlink:href="vector_8hpp.html" target="_top" xlink:title=" ">
<polygon fill="none" stroke="black" points="353,-0.5 353,-19.5 415,-19.5 415,-0.5 353,-0.5"/>
<text text-anchor="middle" x="384" y="-7.5" font-family="Helvetica,sans-Serif" font-size="10.00">vector.hpp</text>
</a>
</g>
</g>
<!-- Node2&#45;&gt;Node9 -->
<g id="edge19" class="edge">
<title>Node2&#45;&gt;Node9</title>
<path fill="none" stroke="midnightblue" d="M290.57,-171.81C322.35,-166.23 365.53,-154.85 397,-132 427.72,-109.7 451.78,-90.53 436,-56 428.61,-39.82 412.2,-27.23 399.78,-19.53"/>
<polygon fill="midnightblue" stroke="midnightblue" points="289.99,-168.36 280.69,-173.43 291.12,-175.27 289.99,-168.36"/>
</g>
<!-- Node10 -->
<g id="node10" class="node">
<title>Node10</title>
<g id="a_node10"><a xlink:href="construct_8hpp.html" target="_top" xlink:title=" ">
<polygon fill="none" stroke="black" points="295.5,-112.5 295.5,-131.5 370.5,-131.5 370.5,-112.5 295.5,-112.5"/>
<text text-anchor="middle" x="333" y="-119.5" font-family="Helvetica,sans-Serif" font-size="10.00">construct.hpp</text>
</a>
</g>
</g>
<!-- Node2&#45;&gt;Node10 -->
<g id="edge9" class="edge">
<title>Node2&#45;&gt;Node10</title>
<path fill="none" stroke="midnightblue" d="M270.19,-162.9C285.78,-153 306.13,-140.07 319.38,-131.65"/>
<polygon fill="midnightblue" stroke="midnightblue" points="268.22,-160.01 261.66,-168.32 271.97,-165.92 268.22,-160.01"/>
</g>
<!-- Node11 -->
<g id="node11" class="node">
<title>Node11</title>
<g id="a_node11"><a xlink:href="uninitialized_8hpp.html" target="_top" xlink:title=" ">
<polygon fill="none" stroke="black" points="341.5,-56.5 341.5,-75.5 426.5,-75.5 426.5,-56.5 341.5,-56.5"/>
<text text-anchor="middle" x="384" y="-63.5" font-family="Helvetica,sans-Serif" font-size="10.00">uninitialized.hpp</text>
</a>
</g>
</g>
<!-- Node2&#45;&gt;Node11 -->
<g id="edge18" class="edge">
<title>Node2&#45;&gt;Node11</title>
<path fill="none" stroke="midnightblue" d="M290.94,-174.42C320.93,-170.15 359.17,-159.29 380,-132 392.62,-115.46 389.17,-89.12 386.22,-75.61"/>
<polygon fill="midnightblue" stroke="midnightblue" points="290.23,-170.98 280.73,-175.67 291.08,-177.93 290.23,-170.98"/>
</g>
<!-- Node3&#45;&gt;Node4 -->
<g id="edge3" class="edge">
<title>Node3&#45;&gt;Node4</title>
<path fill="none" stroke="midnightblue" d="M158.84,-102.67C152.06,-78.62 140.44,-37.39 135.42,-19.59"/>
<polygon fill="midnightblue" stroke="midnightblue" points="155.49,-103.69 161.57,-112.37 162.22,-101.79 155.49,-103.69"/>
</g>
<!-- Node3&#45;&gt;Node5 -->
<g id="edge4" class="edge">
<title>Node3&#45;&gt;Node5</title>
<path fill="none" stroke="midnightblue" d="M195.13,-108.64C220.66,-98.5 256.11,-84.43 278.55,-75.52"/>
<polygon fill="midnightblue" stroke="midnightblue" points="193.55,-105.5 185.55,-112.44 196.14,-112.01 193.55,-105.5"/>
</g>
<!-- Node3&#45;&gt;Node6 -->
<g id="edge5" class="edge">
<title>Node3&#45;&gt;Node6</title>
<path fill="none" stroke="midnightblue" d="M134.61,-108.5C110.8,-98.38 77.89,-84.39 57.03,-75.52"/>
<polygon fill="midnightblue" stroke="midnightblue" points="133.3,-111.75 143.88,-112.44 136.04,-105.31 133.3,-111.75"/>
</g>
<!-- Node3&#45;&gt;Node8 -->
<g id="edge7" class="edge">
<title>Node3&#45;&gt;Node8</title>
<path fill="none" stroke="midnightblue" d="M182.27,-105.82C193.92,-96.15 208.6,-83.95 218.37,-75.83"/>
<polygon fill="midnightblue" stroke="midnightblue" points="179.9,-103.24 174.44,-112.32 184.37,-108.63 179.9,-103.24"/>
</g>
<!-- Node3&#45;&gt;Node9 -->
<g id="edge8" class="edge">
<title>Node3&#45;&gt;Node9</title>
<path fill="none" stroke="midnightblue" d="M166.98,-102.36C170.32,-87.65 177.18,-67.71 191,-56 215.21,-35.48 304.77,-21.16 352.91,-14.77"/>
<polygon fill="midnightblue" stroke="midnightblue" points="163.51,-101.89 165.06,-112.37 170.38,-103.21 163.51,-101.89"/>
</g>
<!-- Node7 -->
<g id="node7" class="node">
<title>Node7</title>
<g id="a_node7"><a xlink:href="multimap_8hpp.html" target="_top" xlink:title=" ">
<polygon fill="none" stroke="black" points="0,-0.5 0,-19.5 74,-19.5 74,-0.5 0,-0.5"/>
<text text-anchor="middle" x="37" y="-7.5" font-family="Helvetica,sans-Serif" font-size="10.00">multimap.hpp</text>
</a>
</g>
</g>
<!-- Node6&#45;&gt;Node7 -->
<g id="edge6" class="edge">
<title>Node6&#45;&gt;Node7</title>
<path fill="none" stroke="midnightblue" d="M37,-45.8C37,-36.91 37,-26.78 37,-19.75"/>
<polygon fill="midnightblue" stroke="midnightblue" points="33.5,-46.08 37,-56.08 40.5,-46.08 33.5,-46.08"/>
</g>
<!-- Node10&#45;&gt;Node5 -->
<g id="edge10" class="edge">
<title>Node10&#45;&gt;Node5</title>
<path fill="none" stroke="midnightblue" d="M322.17,-103.27C316.53,-94.05 309.88,-83.17 305.35,-75.75"/>
<polygon fill="midnightblue" stroke="midnightblue" points="319.35,-105.38 327.55,-112.08 325.32,-101.73 319.35,-105.38"/>
</g>
<!-- Node10&#45;&gt;Node11 -->
<g id="edge11" class="edge">
<title>Node10&#45;&gt;Node11</title>
<path fill="none" stroke="midnightblue" d="M348.38,-104.72C357.37,-95.2 368.36,-83.56 375.74,-75.75"/>
<polygon fill="midnightblue" stroke="midnightblue" points="345.74,-102.41 341.42,-112.08 350.83,-107.22 345.74,-102.41"/>
</g>
<!-- Node11&#45;&gt;Node4 -->
<g id="edge12" class="edge">
<title>Node11&#45;&gt;Node4</title>
<path fill="none" stroke="midnightblue" d="M334.43,-54.34C283.56,-43.39 206.01,-26.71 163.51,-17.56"/>
<polygon fill="midnightblue" stroke="midnightblue" points="333.72,-57.76 344.23,-56.44 335.19,-50.92 333.72,-57.76"/>
</g>
<!-- Node11&#45;&gt;Node9 -->
<g id="edge13" class="edge">
<title>Node11&#45;&gt;Node9</title>
<path fill="none" stroke="midnightblue" d="M384,-45.8C384,-36.91 384,-26.78 384,-19.75"/>
<polygon fill="midnightblue" stroke="midnightblue" points="380.5,-46.08 384,-56.08 387.5,-46.08 380.5,-46.08"/>
</g>
</g>
</svg>
