<?xml version="1.0" encoding="UTF-8" standalone="no"?>
<!DOCTYPE svg PUBLIC "-//W3C//DTD SVG 1.1//EN"
 "http://www.w3.org/Graphics/SVG/1.1/DTD/svg11.dtd">
<!-- Generated by graphviz version 2.49.3 (20211027.1534)
 -->
<!-- Title: stack.hpp Pages: 1 -->
<svg width="462pt" height="252pt"
 viewBox="0.00 0.00 461.50 252.00" xmlns="http://www.w3.org/2000/svg" xmlns:xlink="http://www.w3.org/1999/xlink">
<g id="graph0" class="graph" transform="scale(1 1) rotate(0) translate(4 248)">
<title>stack.hpp</title>
<!-- Node1 -->
<g id="node1" class="node">
<title>Node1</title>
<g id="a_node1"><a xlink:title=" ">
<polygon fill="#bfbfbf" stroke="black" points="104,-224.5 104,-243.5 163,-243.5 163,-224.5 104,-224.5"/>
<text text-anchor="middle" x="133.5" y="-231.5" font-family="Helvetica,sans-Serif" font-size="10.00">stack.hpp</text>
</a>
</g>
</g>
<!-- Node2 -->
<g id="node2" class="node">
<title>Node2</title>
<g id="a_node2"><a xlink:href="iterator_8hpp.html" target="_top" xlink:title=" ">
<polygon fill="none" stroke="black" points="77,-112.5 77,-131.5 142,-131.5 142,-112.5 77,-112.5"/>
<text text-anchor="middle" x="109.5" y="-119.5" font-family="Helvetica,sans-Serif" font-size="10.00">iterator.hpp</text>
</a>
</g>
</g>
<!-- Node1&#45;&gt;Node2 -->
<g id="edge1" class="edge">
<title>Node1&#45;&gt;Node2</title>
<path fill="none" stroke="midnightblue" d="M131.62,-224.37C127.74,-206.62 118.81,-165.67 113.56,-141.6"/>
<polygon fill="midnightblue" stroke="midnightblue" points="116.93,-140.62 111.37,-131.59 110.09,-142.11 116.93,-140.62"/>
</g>
<!-- Node8 -->
<g id="node8" class="node">
<title>Node8</title>
<g id="a_node8"><a xlink:href="algorithm_8hpp.html" target="_top" xlink:title=" ">
<polygon fill="none" stroke="black" points="7.5,-168.5 7.5,-187.5 81.5,-187.5 81.5,-168.5 7.5,-168.5"/>
<text text-anchor="middle" x="44.5" y="-175.5" font-family="Helvetica,sans-Serif" font-size="10.00">algorithm.hpp</text>
</a>
</g>
</g>
<!-- Node1&#45;&gt;Node8 -->
<g id="edge7" class="edge">
<title>Node1&#45;&gt;Node8</title>
<path fill="none" stroke="midnightblue" d="M119.2,-224.32C105.32,-215.9 84.01,-202.97 67.7,-193.07"/>
<polygon fill="midnightblue" stroke="midnightblue" points="69.13,-189.85 58.76,-187.65 65.5,-195.83 69.13,-189.85"/>
</g>
<!-- Node9 -->
<g id="node9" class="node">
<title>Node9</title>
<g id="a_node9"><a xlink:title=" ">
<polygon fill="none" stroke="#bfbfbf" points="137.5,-168.5 137.5,-187.5 177.5,-187.5 177.5,-168.5 137.5,-168.5"/>
<text text-anchor="middle" x="157.5" y="-175.5" font-family="Helvetica,sans-Serif" font-size="10.00">limits</text>
</a>
</g>
</g>
<!-- Node1&#45;&gt;Node9 -->
<g id="edge10" class="edge">
<title>Node1&#45;&gt;Node9</title>
<path fill="none" stroke="midnightblue" d="M137.46,-224.08C140.71,-216.77 145.42,-206.18 149.45,-197.1"/>
<polygon fill="midnightblue" stroke="midnightblue" points="152.75,-198.31 153.61,-187.75 146.35,-195.47 152.75,-198.31"/>
</g>
<!-- Node10 -->
<g id="node10" class="node">
<title>Node10</title>
<g id="a_node10"><a xlink:title=" ">
<polygon fill="none" stroke="#bfbfbf" points="196,-168.5 196,-187.5 239,-187.5 239,-168.5 196,-168.5"/>
<text text-anchor="middle" x="217.5" y="-175.5" font-family="Helvetica,sans-Serif" font-size="10.00">deque</text>
</a>
</g>
</g>
<!-- Node1&#45;&gt;Node10 -->
<g id="edge11" class="edge">
<title>Node1&#45;&gt;Node10</title>
<path fill="none" stroke="midnightblue" d="M147,-224.32C160.1,-215.9 180.21,-202.97 195.61,-193.07"/>
<polygon fill="midnightblue" stroke="midnightblue" points="197.52,-196.01 204.04,-187.65 193.73,-190.12 197.52,-196.01"/>
</g>
<!-- Node3 -->
<g id="node3" class="node">
<title>Node3</title>
<g id="a_node3"><a xlink:title=" ">
<polygon fill="none" stroke="#bfbfbf" points="0,-56.5 0,-75.5 51,-75.5 51,-56.5 0,-56.5"/>
<text text-anchor="middle" x="25.5" y="-63.5" font-family="Helvetica,sans-Serif" font-size="10.00">memory</text>
</a>
</g>
</g>
<!-- Node2&#45;&gt;Node3 -->
<g id="edge2" class="edge">
<title>Node2&#45;&gt;Node3</title>
<path fill="none" stroke="midnightblue" d="M96,-112.32C82.9,-103.9 62.79,-90.97 47.39,-81.07"/>
<polygon fill="midnightblue" stroke="midnightblue" points="49.27,-78.12 38.96,-75.65 45.48,-84.01 49.27,-78.12"/>
</g>
<!-- Node4 -->
<g id="node4" class="node">
<title>Node4</title>
<g id="a_node4"><a xlink:href="type__traits_8hpp.html" target="_top" xlink:title=" ">
<polygon fill="none" stroke="black" points="69.5,-56.5 69.5,-75.5 149.5,-75.5 149.5,-56.5 69.5,-56.5"/>
<text text-anchor="middle" x="109.5" y="-63.5" font-family="Helvetica,sans-Serif" font-size="10.00">type_traits.hpp</text>
</a>
</g>
</g>
<!-- Node2&#45;&gt;Node4 -->
<g id="edge3" class="edge">
<title>Node2&#45;&gt;Node4</title>
<path fill="none" stroke="midnightblue" d="M109.5,-112.08C109.5,-105.01 109.5,-94.86 109.5,-85.99"/>
<polygon fill="midnightblue" stroke="midnightblue" points="113,-85.75 109.5,-75.75 106,-85.75 113,-85.75"/>
</g>
<!-- Node6 -->
<g id="node6" class="node">
<title>Node6</title>
<g id="a_node6"><a xlink:href="reverse__iterator_8hpp.html" target="_top" xlink:title=" ">
<polygon fill="none" stroke="black" points="168,-56.5 168,-75.5 303,-75.5 303,-56.5 168,-56.5"/>
<text text-anchor="middle" x="235.5" y="-63.5" font-family="Helvetica,sans-Serif" font-size="10.00">iterator/reverse_iterator.hpp</text>
</a>
</g>
</g>
<!-- Node2&#45;&gt;Node6 -->
<g id="edge5" class="edge">
<title>Node2&#45;&gt;Node6</title>
<path fill="none" stroke="midnightblue" d="M129.47,-112.44C150.11,-103.6 182.56,-89.69 206.13,-79.59"/>
<polygon fill="midnightblue" stroke="midnightblue" points="207.82,-82.67 215.63,-75.52 205.06,-76.24 207.82,-82.67"/>
</g>
<!-- Node7 -->
<g id="node7" class="node">
<title>Node7</title>
<g id="a_node7"><a xlink:href="normal__iterator_8hpp.html" target="_top" xlink:title=" ">
<polygon fill="none" stroke="black" points="321.5,-56.5 321.5,-75.5 453.5,-75.5 453.5,-56.5 321.5,-56.5"/>
<text text-anchor="middle" x="387.5" y="-63.5" font-family="Helvetica,sans-Serif" font-size="10.00">iterator/normal_iterator.hpp</text>
</a>
</g>
</g>
<!-- Node2&#45;&gt;Node7 -->
<g id="edge6" class="edge">
<title>Node2&#45;&gt;Node7</title>
<path fill="none" stroke="midnightblue" d="M142.21,-114.65C189.33,-105.49 276.87,-88.49 333.62,-77.47"/>
<polygon fill="midnightblue" stroke="midnightblue" points="334.35,-80.89 343.5,-75.55 333.01,-74.02 334.35,-80.89"/>
</g>
<!-- Node5 -->
<g id="node5" class="node">
<title>Node5</title>
<g id="a_node5"><a xlink:title=" ">
<polygon fill="none" stroke="#bfbfbf" points="85,-0.5 85,-19.5 134,-19.5 134,-0.5 85,-0.5"/>
<text text-anchor="middle" x="109.5" y="-7.5" font-family="Helvetica,sans-Serif" font-size="10.00">cstddef</text>
</a>
</g>
</g>
<!-- Node4&#45;&gt;Node5 -->
<g id="edge4" class="edge">
<title>Node4&#45;&gt;Node5</title>
<path fill="none" stroke="midnightblue" d="M109.5,-56.08C109.5,-49.01 109.5,-38.86 109.5,-29.99"/>
<polygon fill="midnightblue" stroke="midnightblue" points="113,-29.75 109.5,-19.75 106,-29.75 113,-29.75"/>
</g>
<!-- Node8&#45;&gt;Node2 -->
<g id="edge8" class="edge">
<title>Node8&#45;&gt;Node2</title>
<path fill="none" stroke="midnightblue" d="M54.94,-168.32C64.65,-160.26 79.32,-148.08 91,-138.37"/>
<polygon fill="midnightblue" stroke="midnightblue" points="93.41,-140.92 98.87,-131.83 88.94,-135.53 93.41,-140.92"/>
</g>
<!-- Node8&#45;&gt;Node3 -->
<g id="edge9" class="edge">
<title>Node8&#45;&gt;Node3</title>
<path fill="none" stroke="midnightblue" d="M43.01,-168.37C39.94,-150.62 32.87,-109.67 28.71,-85.6"/>
<polygon fill="midnightblue" stroke="midnightblue" points="32.14,-84.85 26.98,-75.59 25.24,-86.04 32.14,-84.85"/>
</g>
</g>
</svg>
