<?xml version="1.0" encoding="UTF-8" standalone="no"?>
<!DOCTYPE svg PUBLIC "-//W3C//DTD SVG 1.1//EN"
 "http://www.w3.org/Graphics/SVG/1.1/DTD/svg11.dtd">
<!-- Generated by graphviz version 2.49.3 (20211027.1534)
 -->
<!-- Title: tstl::random_access_iterator_tag Pages: 1 -->
<svg width="129pt" height="218pt"
 viewBox="0.00 0.00 129.00 218.00" xmlns="http://www.w3.org/2000/svg" xmlns:xlink="http://www.w3.org/1999/xlink">
<g id="graph0" class="graph" transform="scale(1 1) rotate(0) translate(4 214)">
<title>tstl::random_access_iterator_tag</title>
<!-- Node1 -->
<g id="node1" class="node">
<title>Node1</title>
<g id="a_node1"><a xlink:title=" ">
<polygon fill="#bfbfbf" stroke="black" points="8.5,-0.5 8.5,-30.5 112.5,-30.5 112.5,-0.5 8.5,-0.5"/>
<text text-anchor="start" x="16.5" y="-18.5" font-family="Helvetica,sans-Serif" font-size="10.00">tstl::random_access</text>
<text text-anchor="middle" x="60.5" y="-7.5" font-family="Helvetica,sans-Serif" font-size="10.00">_iterator_tag</text>
</a>
</g>
</g>
<!-- Node2 -->
<g id="node2" class="node">
<title>Node2</title>
<g id="a_node2"><a xlink:href="structtstl_1_1bidirectional__iterator__tag.html" target="_top" xlink:title=" ">
<polygon fill="none" stroke="black" points="17.5,-67.5 17.5,-97.5 103.5,-97.5 103.5,-67.5 17.5,-67.5"/>
<text text-anchor="start" x="25.5" y="-85.5" font-family="Helvetica,sans-Serif" font-size="10.00">tstl::bidirectional</text>
<text text-anchor="middle" x="60.5" y="-74.5" font-family="Helvetica,sans-Serif" font-size="10.00">_iterator_tag</text>
</a>
</g>
</g>
<!-- Node2&#45;&gt;Node1 -->
<g id="edge1" class="edge">
<title>Node2&#45;&gt;Node1</title>
<path fill="none" stroke="midnightblue" d="M60.5,-57.11C60.5,-48.15 60.5,-38.32 60.5,-30.58"/>
<polygon fill="midnightblue" stroke="midnightblue" points="57,-57.4 60.5,-67.4 64,-57.4 57,-57.4"/>
</g>
<!-- Node3 -->
<g id="node3" class="node">
<title>Node3</title>
<g id="a_node3"><a xlink:href="structtstl_1_1forward__iterator__tag.html" target="_top" xlink:title=" ">
<polygon fill="none" stroke="black" points="0,-134.5 0,-153.5 121,-153.5 121,-134.5 0,-134.5"/>
<text text-anchor="middle" x="60.5" y="-141.5" font-family="Helvetica,sans-Serif" font-size="10.00">tstl::forward_iterator_tag</text>
</a>
</g>
</g>
<!-- Node3&#45;&gt;Node2 -->
<g id="edge2" class="edge">
<title>Node3&#45;&gt;Node2</title>
<path fill="none" stroke="midnightblue" d="M60.5,-124.23C60.5,-115.59 60.5,-105.5 60.5,-97.52"/>
<polygon fill="midnightblue" stroke="midnightblue" points="57,-124.48 60.5,-134.48 64,-124.48 57,-124.48"/>
</g>
<!-- Node4 -->
<g id="node4" class="node">
<title>Node4</title>
<g id="a_node4"><a xlink:href="structtstl_1_1input__iterator__tag.html" target="_top" xlink:title=" ">
<polygon fill="none" stroke="black" points="5.5,-190.5 5.5,-209.5 115.5,-209.5 115.5,-190.5 5.5,-190.5"/>
<text text-anchor="middle" x="60.5" y="-197.5" font-family="Helvetica,sans-Serif" font-size="10.00">tstl::input_iterator_tag</text>
</a>
</g>
</g>
<!-- Node4&#45;&gt;Node3 -->
<g id="edge3" class="edge">
<title>Node4&#45;&gt;Node3</title>
<path fill="none" stroke="midnightblue" d="M60.5,-179.8C60.5,-170.91 60.5,-160.78 60.5,-153.75"/>
<polygon fill="midnightblue" stroke="midnightblue" points="57,-180.08 60.5,-190.08 64,-180.08 57,-180.08"/>
</g>
</g>
</svg>
