<?xml version="1.0" encoding="UTF-8" standalone="no"?>
<!DOCTYPE svg PUBLIC "-//W3C//DTD SVG 1.1//EN"
 "http://www.w3.org/Graphics/SVG/1.1/DTD/svg11.dtd">
<!-- Generated by graphviz version 2.49.3 (20211027.1534)
 -->
<!-- Title: tstl::integral_constant&lt; T, v &gt; Pages: 1 -->
<svg width="202pt" height="106pt"
 viewBox="0.00 0.00 201.50 106.00" xmlns="http://www.w3.org/2000/svg" xmlns:xlink="http://www.w3.org/1999/xlink">
<g id="graph0" class="graph" transform="scale(1 1) rotate(0) translate(4 102)">
<title>tstl::integral_constant&lt; T, v &gt;</title>
<!-- Node1 -->
<g id="node1" class="node">
<title>Node1</title>
<g id="a_node1"><a xlink:title=" ">
<polygon fill="#bfbfbf" stroke="black" points="41.5,-67.5 41.5,-97.5 150.5,-97.5 150.5,-67.5 41.5,-67.5"/>
<text text-anchor="start" x="49.5" y="-85.5" font-family="Helvetica,sans-Serif" font-size="10.00">tstl::integral_constant</text>
<text text-anchor="middle" x="96" y="-74.5" font-family="Helvetica,sans-Serif" font-size="10.00">&lt; T, v &gt;</text>
</a>
</g>
</g>
<!-- Node2 -->
<g id="node2" class="node">
<title>Node2</title>
<g id="a_node2"><a xlink:href="structtstl_1_1is__pair.html" target="_top" xlink:title=" ">
<polygon fill="none" stroke="black" points="0,-6 0,-25 86,-25 86,-6 0,-6"/>
<text text-anchor="middle" x="43" y="-13" font-family="Helvetica,sans-Serif" font-size="10.00">tstl::is_pair&lt; T &gt;</text>
</a>
</g>
</g>
<!-- Node1&#45;&gt;Node2 -->
<g id="edge1" class="edge">
<title>Node1&#45;&gt;Node2</title>
<path fill="none" stroke="midnightblue" d="M77.91,-59.32C68.36,-47.6 57.17,-33.88 50.09,-25.19"/>
<polygon fill="midnightblue" stroke="midnightblue" points="75.47,-61.86 84.5,-67.4 80.89,-57.43 75.47,-61.86"/>
</g>
<!-- Node3 -->
<g id="node3" class="node">
<title>Node3</title>
<g id="a_node3"><a xlink:href="structtstl_1_1is__pair_3_01std_1_1pair_3_01_t1_00_01_t2_01_4_01_4.html" target="_top" xlink:title=" ">
<polygon fill="none" stroke="black" points="104.5,-0.5 104.5,-30.5 193.5,-30.5 193.5,-0.5 104.5,-0.5"/>
<text text-anchor="start" x="112.5" y="-18.5" font-family="Helvetica,sans-Serif" font-size="10.00">tstl::is_pair&lt; std</text>
<text text-anchor="middle" x="149" y="-7.5" font-family="Helvetica,sans-Serif" font-size="10.00">::pair&lt; T1, T2 &gt; &gt;</text>
</a>
</g>
</g>
<!-- Node1&#45;&gt;Node3 -->
<g id="edge2" class="edge">
<title>Node1&#45;&gt;Node3</title>
<path fill="none" stroke="midnightblue" d="M113.98,-59.45C121.77,-49.9 130.65,-39 137.52,-30.58"/>
<polygon fill="midnightblue" stroke="midnightblue" points="111.11,-57.43 107.5,-67.4 116.53,-61.86 111.11,-57.43"/>
</g>
</g>
</svg>
