<?xml version="1.0" encoding="UTF-8" standalone="no"?>
<!DOCTYPE svg PUBLIC "-//W3C//DTD SVG 1.1//EN"
 "http://www.w3.org/Graphics/SVG/1.1/DTD/svg11.dtd">
<!-- Generated by graphviz version 2.49.3 (20211027.1534)
 -->
<!-- Title: tstl::rb_tree_iterator_base&lt; T &gt; Pages: 1 -->
<svg width="242pt" height="184pt"
 viewBox="0.00 0.00 242.00 184.00" xmlns="http://www.w3.org/2000/svg" xmlns:xlink="http://www.w3.org/1999/xlink">
<g id="graph0" class="graph" transform="scale(1 1) rotate(0) translate(4 180)">
<title>tstl::rb_tree_iterator_base&lt; T &gt;</title>
<!-- Node1 -->
<g id="node1" class="node">
<title>Node1</title>
<g id="a_node1"><a xlink:title=" ">
<polygon fill="#bfbfbf" stroke="black" points="60,-67.5 60,-97.5 160,-97.5 160,-67.5 60,-67.5"/>
<text text-anchor="start" x="68" y="-85.5" font-family="Helvetica,sans-Serif" font-size="10.00">tstl::rb_tree_iterator</text>
<text text-anchor="middle" x="110" y="-74.5" font-family="Helvetica,sans-Serif" font-size="10.00">_base&lt; T &gt;</text>
</a>
</g>
</g>
<!-- Node3 -->
<g id="node3" class="node">
<title>Node3</title>
<g id="a_node3"><a xlink:href="structtstl_1_1rb__tree__const__iterator.html" target="_top" xlink:title=" ">
<polygon fill="none" stroke="black" points="0,-0.5 0,-30.5 94,-30.5 94,-0.5 0,-0.5"/>
<text text-anchor="start" x="8" y="-18.5" font-family="Helvetica,sans-Serif" font-size="10.00">tstl::rb_tree_const</text>
<text text-anchor="middle" x="47" y="-7.5" font-family="Helvetica,sans-Serif" font-size="10.00">_iterator&lt; T &gt;</text>
</a>
</g>
</g>
<!-- Node1&#45;&gt;Node3 -->
<g id="edge2" class="edge">
<title>Node1&#45;&gt;Node3</title>
<path fill="none" stroke="midnightblue" d="M89.19,-60.02C79.8,-50.34 68.98,-39.17 60.64,-30.58"/>
<polygon fill="midnightblue" stroke="midnightblue" points="86.86,-62.65 96.33,-67.4 91.88,-57.78 86.86,-62.65"/>
</g>
<!-- Node4 -->
<g id="node4" class="node">
<title>Node4</title>
<g id="a_node4"><a xlink:href="structtstl_1_1rb__tree__iterator.html" target="_top" xlink:title=" ">
<polygon fill="none" stroke="black" points="112,-6 112,-25 234,-25 234,-6 112,-6"/>
<text text-anchor="middle" x="173" y="-13" font-family="Helvetica,sans-Serif" font-size="10.00">tstl::rb_tree_iterator&lt; T &gt;</text>
</a>
</g>
</g>
<!-- Node1&#45;&gt;Node4 -->
<g id="edge3" class="edge">
<title>Node1&#45;&gt;Node4</title>
<path fill="none" stroke="midnightblue" d="M130.84,-60C142.34,-48.13 155.99,-34.05 164.57,-25.19"/>
<polygon fill="midnightblue" stroke="midnightblue" points="128.12,-57.78 123.67,-67.4 133.14,-62.65 128.12,-57.78"/>
</g>
<!-- Node2 -->
<g id="node2" class="node">
<title>Node2</title>
<g id="a_node2"><a xlink:href="structtstl_1_1iterator.html" target="_top" xlink:title=" ">
<polygon fill="none" stroke="black" points="56,-134.5 56,-175.5 164,-175.5 164,-134.5 56,-134.5"/>
<text text-anchor="start" x="64" y="-163.5" font-family="Helvetica,sans-Serif" font-size="10.00">tstl::iterator&lt; tstl</text>
<text text-anchor="start" x="64" y="-152.5" font-family="Helvetica,sans-Serif" font-size="10.00">::bidirectional_iterator</text>
<text text-anchor="middle" x="110" y="-141.5" font-family="Helvetica,sans-Serif" font-size="10.00">_tag, T &gt;</text>
</a>
</g>
</g>
<!-- Node2&#45;&gt;Node1 -->
<g id="edge1" class="edge">
<title>Node2&#45;&gt;Node1</title>
<path fill="none" stroke="midnightblue" d="M110,-124.08C110,-115.01 110,-105.45 110,-97.89"/>
<polygon fill="midnightblue" stroke="midnightblue" points="106.5,-124.36 110,-134.36 113.5,-124.36 106.5,-124.36"/>
</g>
</g>
</svg>
