<?xml version="1.0" encoding="UTF-8" standalone="no"?>
<!DOCTYPE svg PUBLIC "-//W3C//DTD SVG 1.1//EN"
 "http://www.w3.org/Graphics/SVG/1.1/DTD/svg11.dtd">
<!-- Generated by graphviz version 2.49.3 (20211027.1534)
 -->
<!-- Title: tstl::rb_tree_const_iterator&lt; T &gt; Pages: 1 -->
<svg width="116pt" height="184pt"
 viewBox="0.00 0.00 116.00 184.00" xmlns="http://www.w3.org/2000/svg" xmlns:xlink="http://www.w3.org/1999/xlink">
<g id="graph0" class="graph" transform="scale(1 1) rotate(0) translate(4 180)">
<title>tstl::rb_tree_const_iterator&lt; T &gt;</title>
<!-- Node1 -->
<g id="node1" class="node">
<title>Node1</title>
<g id="a_node1"><a xlink:title=" ">
<polygon fill="#bfbfbf" stroke="black" points="7,-0.5 7,-30.5 101,-30.5 101,-0.5 7,-0.5"/>
<text text-anchor="start" x="15" y="-18.5" font-family="Helvetica,sans-Serif" font-size="10.00">tstl::rb_tree_const</text>
<text text-anchor="middle" x="54" y="-7.5" font-family="Helvetica,sans-Serif" font-size="10.00">_iterator&lt; T &gt;</text>
</a>
</g>
</g>
<!-- Node2 -->
<g id="node2" class="node">
<title>Node2</title>
<g id="a_node2"><a xlink:href="structtstl_1_1rb__tree__iterator__base.html" target="_top" xlink:title=" ">
<polygon fill="none" stroke="black" points="4,-67.5 4,-97.5 104,-97.5 104,-67.5 4,-67.5"/>
<text text-anchor="start" x="12" y="-85.5" font-family="Helvetica,sans-Serif" font-size="10.00">tstl::rb_tree_iterator</text>
<text text-anchor="middle" x="54" y="-74.5" font-family="Helvetica,sans-Serif" font-size="10.00">_base&lt; T &gt;</text>
</a>
</g>
</g>
<!-- Node2&#45;&gt;Node1 -->
<g id="edge1" class="edge">
<title>Node2&#45;&gt;Node1</title>
<path fill="none" stroke="midnightblue" d="M54,-57.11C54,-48.15 54,-38.32 54,-30.58"/>
<polygon fill="midnightblue" stroke="midnightblue" points="50.5,-57.4 54,-67.4 57.5,-57.4 50.5,-57.4"/>
</g>
<!-- Node3 -->
<g id="node3" class="node">
<title>Node3</title>
<g id="a_node3"><a xlink:href="structtstl_1_1iterator.html" target="_top" xlink:title=" ">
<polygon fill="none" stroke="black" points="0,-134.5 0,-175.5 108,-175.5 108,-134.5 0,-134.5"/>
<text text-anchor="start" x="8" y="-163.5" font-family="Helvetica,sans-Serif" font-size="10.00">tstl::iterator&lt; tstl</text>
<text text-anchor="start" x="8" y="-152.5" font-family="Helvetica,sans-Serif" font-size="10.00">::bidirectional_iterator</text>
<text text-anchor="middle" x="54" y="-141.5" font-family="Helvetica,sans-Serif" font-size="10.00">_tag, T &gt;</text>
</a>
</g>
</g>
<!-- Node3&#45;&gt;Node2 -->
<g id="edge2" class="edge">
<title>Node3&#45;&gt;Node2</title>
<path fill="none" stroke="midnightblue" d="M54,-124.08C54,-115.01 54,-105.45 54,-97.89"/>
<polygon fill="midnightblue" stroke="midnightblue" points="50.5,-124.36 54,-134.36 57.5,-124.36 50.5,-124.36"/>
</g>
</g>
</svg>
