<?xml version="1.0" encoding="UTF-8" standalone="no"?>
<!DOCTYPE svg PUBLIC "-//W3C//DTD SVG 1.1//EN"
 "http://www.w3.org/Graphics/SVG/1.1/DTD/svg11.dtd">
<!-- Generated by graphviz version 2.49.3 (20211027.1534)
 -->
<!-- Title: type_traits.hpp Pages: 1 -->
<svg width="449pt" height="252pt"
 viewBox="0.00 0.00 448.87 252.00" xmlns="http://www.w3.org/2000/svg" xmlns:xlink="http://www.w3.org/1999/xlink">
<g id="graph0" class="graph" transform="scale(1 1) rotate(0) translate(4 248)">
<title>type_traits.hpp</title>
<!-- Node1 -->
<g id="node1" class="node">
<title>Node1</title>
<g id="a_node1"><a xlink:title=" ">
<polygon fill="#bfbfbf" stroke="black" points="278.87,-224.5 278.87,-243.5 358.87,-243.5 358.87,-224.5 278.87,-224.5"/>
<text text-anchor="middle" x="318.87" y="-231.5" font-family="Helvetica,sans-Serif" font-size="10.00">type_traits.hpp</text>
</a>
</g>
</g>
<!-- Node2 -->
<g id="node2" class="node">
<title>Node2</title>
<g id="a_node2"><a xlink:href="iterator_8hpp.html" target="_top" xlink:title=" ">
<polygon fill="none" stroke="black" points="181.37,-168.5 181.37,-187.5 246.37,-187.5 246.37,-168.5 181.37,-168.5"/>
<text text-anchor="middle" x="213.87" y="-175.5" font-family="Helvetica,sans-Serif" font-size="10.00">iterator.hpp</text>
</a>
</g>
</g>
<!-- Node1&#45;&gt;Node2 -->
<g id="edge1" class="edge">
<title>Node1&#45;&gt;Node2</title>
<path fill="none" stroke="midnightblue" d="M293.06,-219.73C273.62,-209.73 247.52,-196.31 230.7,-187.65"/>
<polygon fill="midnightblue" stroke="midnightblue" points="291.51,-222.86 302,-224.32 294.71,-216.64 291.51,-222.86"/>
</g>
<!-- Node6 -->
<g id="node6" class="node">
<title>Node6</title>
<g id="a_node6"><a xlink:href="rbtree_8hpp.html" target="_top" xlink:title=" ">
<polygon fill="none" stroke="black" points="374.37,-56.5 374.37,-75.5 433.37,-75.5 433.37,-56.5 374.37,-56.5"/>
<text text-anchor="middle" x="403.87" y="-63.5" font-family="Helvetica,sans-Serif" font-size="10.00">rbtree.hpp</text>
</a>
</g>
</g>
<!-- Node1&#45;&gt;Node6 -->
<g id="edge20" class="edge">
<title>Node1&#45;&gt;Node6</title>
<path fill="none" stroke="midnightblue" d="M331.75,-216.18C346.11,-196.78 369.22,-163.5 383.87,-132 392.83,-112.73 399.08,-88.42 402,-75.69"/>
<polygon fill="midnightblue" stroke="midnightblue" points="328.87,-214.19 325.66,-224.29 334.47,-218.4 328.87,-214.19"/>
</g>
<!-- Node3 -->
<g id="node3" class="node">
<title>Node3</title>
<g id="a_node3"><a xlink:href="algorithm_8hpp.html" target="_top" xlink:title=" ">
<polygon fill="none" stroke="black" points="241.87,-112.5 241.87,-131.5 315.87,-131.5 315.87,-112.5 241.87,-112.5"/>
<text text-anchor="middle" x="278.87" y="-119.5" font-family="Helvetica,sans-Serif" font-size="10.00">algorithm.hpp</text>
</a>
</g>
</g>
<!-- Node2&#45;&gt;Node3 -->
<g id="edge2" class="edge">
<title>Node2&#45;&gt;Node3</title>
<path fill="none" stroke="midnightblue" d="M232.14,-161.82C243.79,-152.15 258.47,-139.95 268.24,-131.83"/>
<polygon fill="midnightblue" stroke="midnightblue" points="229.77,-159.24 224.31,-168.32 234.24,-164.63 229.77,-159.24"/>
</g>
<!-- Node4 -->
<g id="node4" class="node">
<title>Node4</title>
<g id="a_node4"><a xlink:href="deque_8hpp.html" target="_top" xlink:title=" ">
<polygon fill="none" stroke="black" points="277.37,-0.5 277.37,-19.5 338.37,-19.5 338.37,-0.5 277.37,-0.5"/>
<text text-anchor="middle" x="307.87" y="-7.5" font-family="Helvetica,sans-Serif" font-size="10.00">deque.hpp</text>
</a>
</g>
</g>
<!-- Node2&#45;&gt;Node4 -->
<g id="edge14" class="edge">
<title>Node2&#45;&gt;Node4</title>
<path fill="none" stroke="midnightblue" d="M256.31,-171.5C280.77,-165.91 309.61,-154.66 324.87,-132 349.05,-96.11 323.9,-40.58 312.68,-19.51"/>
<polygon fill="midnightblue" stroke="midnightblue" points="255.6,-168.07 246.5,-173.5 257,-174.93 255.6,-168.07"/>
</g>
<!-- Node5 -->
<g id="node5" class="node">
<title>Node5</title>
<g id="a_node5"><a xlink:href="list_8hpp.html" target="_top" xlink:title=" ">
<polygon fill="none" stroke="black" points="117.37,-56.5 117.37,-75.5 164.37,-75.5 164.37,-56.5 117.37,-56.5"/>
<text text-anchor="middle" x="140.87" y="-63.5" font-family="Helvetica,sans-Serif" font-size="10.00">list.hpp</text>
</a>
</g>
</g>
<!-- Node2&#45;&gt;Node5 -->
<g id="edge15" class="edge">
<title>Node2&#45;&gt;Node5</title>
<path fill="none" stroke="midnightblue" d="M202.56,-159.96C186.74,-136.12 158.6,-93.71 146.57,-75.59"/>
<polygon fill="midnightblue" stroke="midnightblue" points="199.7,-161.97 208.14,-168.37 205.53,-158.1 199.7,-161.97"/>
</g>
<!-- Node2&#45;&gt;Node6 -->
<g id="edge16" class="edge">
<title>Node2&#45;&gt;Node6</title>
<path fill="none" stroke="midnightblue" d="M256.67,-171.56C287.76,-165.87 329.52,-154.48 359.87,-132 380.24,-116.92 394.24,-89.44 400.37,-75.54"/>
<polygon fill="midnightblue" stroke="midnightblue" points="255.84,-168.15 246.57,-173.28 257.02,-175.05 255.84,-168.15"/>
</g>
<!-- Node8 -->
<g id="node8" class="node">
<title>Node8</title>
<g id="a_node8"><a xlink:href="stack_8hpp.html" target="_top" xlink:title=" ">
<polygon fill="none" stroke="black" points="182.37,-56.5 182.37,-75.5 241.37,-75.5 241.37,-56.5 182.37,-56.5"/>
<text text-anchor="middle" x="211.87" y="-63.5" font-family="Helvetica,sans-Serif" font-size="10.00">stack.hpp</text>
</a>
</g>
</g>
<!-- Node2&#45;&gt;Node8 -->
<g id="edge17" class="edge">
<title>Node2&#45;&gt;Node8</title>
<path fill="none" stroke="midnightblue" d="M213.53,-158.35C213.09,-134.25 212.35,-93.31 212.03,-75.59"/>
<polygon fill="midnightblue" stroke="midnightblue" points="210.03,-158.43 213.71,-168.37 217.03,-158.31 210.03,-158.43"/>
</g>
<!-- Node9 -->
<g id="node9" class="node">
<title>Node9</title>
<g id="a_node9"><a xlink:href="vector_8hpp.html" target="_top" xlink:title=" ">
<polygon fill="none" stroke="black" points="25.87,-0.5 25.87,-19.5 87.87,-19.5 87.87,-0.5 25.87,-0.5"/>
<text text-anchor="middle" x="56.87" y="-7.5" font-family="Helvetica,sans-Serif" font-size="10.00">vector.hpp</text>
</a>
</g>
</g>
<!-- Node2&#45;&gt;Node9 -->
<g id="edge19" class="edge">
<title>Node2&#45;&gt;Node9</title>
<path fill="none" stroke="midnightblue" d="M170.89,-172.39C136.2,-167.04 87.35,-155.7 50.87,-132 17.76,-110.49 -11.54,-91.91 4.87,-56 12.27,-39.82 28.67,-27.23 41.09,-19.53"/>
<polygon fill="midnightblue" stroke="midnightblue" points="170.78,-175.91 181.17,-173.86 171.77,-168.98 170.78,-175.91"/>
</g>
<!-- Node10 -->
<g id="node10" class="node">
<title>Node10</title>
<g id="a_node10"><a xlink:href="construct_8hpp.html" target="_top" xlink:title=" ">
<polygon fill="none" stroke="black" points="72.37,-112.5 72.37,-131.5 147.37,-131.5 147.37,-112.5 72.37,-112.5"/>
<text text-anchor="middle" x="109.87" y="-119.5" font-family="Helvetica,sans-Serif" font-size="10.00">construct.hpp</text>
</a>
</g>
</g>
<!-- Node2&#45;&gt;Node10 -->
<g id="edge9" class="edge">
<title>Node2&#45;&gt;Node10</title>
<path fill="none" stroke="midnightblue" d="M188.04,-163.59C168.81,-153.61 143.13,-140.27 126.54,-131.65"/>
<polygon fill="midnightblue" stroke="midnightblue" points="186.67,-166.82 197.16,-168.32 189.9,-160.61 186.67,-166.82"/>
</g>
<!-- Node11 -->
<g id="node11" class="node">
<title>Node11</title>
<g id="a_node11"><a xlink:href="uninitialized_8hpp.html" target="_top" xlink:title=" ">
<polygon fill="none" stroke="black" points="14.37,-56.5 14.37,-75.5 99.37,-75.5 99.37,-56.5 14.37,-56.5"/>
<text text-anchor="middle" x="56.87" y="-63.5" font-family="Helvetica,sans-Serif" font-size="10.00">uninitialized.hpp</text>
</a>
</g>
</g>
<!-- Node2&#45;&gt;Node11 -->
<g id="edge18" class="edge">
<title>Node2&#45;&gt;Node11</title>
<path fill="none" stroke="midnightblue" d="M171.01,-176.57C136.24,-173.73 88.88,-163.73 62.87,-132 49.65,-115.87 52.34,-89.35 54.89,-75.71"/>
<polygon fill="midnightblue" stroke="midnightblue" points="171.16,-180.08 181.36,-177.23 171.61,-173.1 171.16,-180.08"/>
</g>
<!-- Node3&#45;&gt;Node4 -->
<g id="edge3" class="edge">
<title>Node3&#45;&gt;Node4</title>
<path fill="none" stroke="midnightblue" d="M283.7,-102.67C290.04,-78.62 300.91,-37.39 305.61,-19.59"/>
<polygon fill="midnightblue" stroke="midnightblue" points="280.31,-101.81 281.15,-112.37 287.08,-103.59 280.31,-101.81"/>
</g>
<!-- Node3&#45;&gt;Node5 -->
<g id="edge4" class="edge">
<title>Node3&#45;&gt;Node5</title>
<path fill="none" stroke="midnightblue" d="M247.62,-108.77C221.7,-98.63 185.51,-84.47 162.64,-75.52"/>
<polygon fill="midnightblue" stroke="midnightblue" points="246.42,-112.06 257,-112.44 248.97,-105.54 246.42,-112.06"/>
</g>
<!-- Node3&#45;&gt;Node6 -->
<g id="edge5" class="edge">
<title>Node3&#45;&gt;Node6</title>
<path fill="none" stroke="midnightblue" d="M308.11,-108.37C331.52,-98.26 363.71,-84.35 384.16,-75.52"/>
<polygon fill="midnightblue" stroke="midnightblue" points="306.47,-105.26 298.68,-112.44 309.25,-111.69 306.47,-105.26"/>
</g>
<!-- Node3&#45;&gt;Node8 -->
<g id="edge7" class="edge">
<title>Node3&#45;&gt;Node8</title>
<path fill="none" stroke="midnightblue" d="M260.04,-105.82C248.03,-96.15 232.9,-83.95 222.83,-75.83"/>
<polygon fill="midnightblue" stroke="midnightblue" points="258.12,-108.77 268.11,-112.32 262.52,-103.32 258.12,-108.77"/>
</g>
<!-- Node3&#45;&gt;Node9 -->
<g id="edge8" class="edge">
<title>Node3&#45;&gt;Node9</title>
<path fill="none" stroke="midnightblue" d="M275.29,-102.34C271.49,-87.61 264,-67.66 249.87,-56 203.17,-17.45 129.46,-10.64 87.95,-10.14"/>
<polygon fill="midnightblue" stroke="midnightblue" points="271.93,-103.36 277.53,-112.36 278.76,-101.84 271.93,-103.36"/>
</g>
<!-- Node7 -->
<g id="node7" class="node">
<title>Node7</title>
<g id="a_node7"><a xlink:href="multimap_8hpp.html" target="_top" xlink:title=" ">
<polygon fill="none" stroke="black" points="366.87,-0.5 366.87,-19.5 440.87,-19.5 440.87,-0.5 366.87,-0.5"/>
<text text-anchor="middle" x="403.87" y="-7.5" font-family="Helvetica,sans-Serif" font-size="10.00">multimap.hpp</text>
</a>
</g>
</g>
<!-- Node6&#45;&gt;Node7 -->
<g id="edge6" class="edge">
<title>Node6&#45;&gt;Node7</title>
<path fill="none" stroke="midnightblue" d="M403.87,-45.8C403.87,-36.91 403.87,-26.78 403.87,-19.75"/>
<polygon fill="midnightblue" stroke="midnightblue" points="400.37,-46.08 403.87,-56.08 407.37,-46.08 400.37,-46.08"/>
</g>
<!-- Node10&#45;&gt;Node5 -->
<g id="edge10" class="edge">
<title>Node10&#45;&gt;Node5</title>
<path fill="none" stroke="midnightblue" d="M120.05,-103.27C125.34,-94.05 131.59,-83.17 135.85,-75.75"/>
<polygon fill="midnightblue" stroke="midnightblue" points="116.93,-101.67 114.99,-112.08 123,-105.15 116.93,-101.67"/>
</g>
<!-- Node10&#45;&gt;Node11 -->
<g id="edge11" class="edge">
<title>Node10&#45;&gt;Node11</title>
<path fill="none" stroke="midnightblue" d="M93.89,-104.72C84.55,-95.2 73.13,-83.56 65.46,-75.75"/>
<polygon fill="midnightblue" stroke="midnightblue" points="91.62,-107.4 101.12,-112.08 96.61,-102.49 91.62,-107.4"/>
</g>
<!-- Node11&#45;&gt;Node4 -->
<g id="edge12" class="edge">
<title>Node11&#45;&gt;Node4</title>
<path fill="none" stroke="midnightblue" d="M106.44,-54.34C157.32,-43.39 234.86,-26.71 277.36,-17.56"/>
<polygon fill="midnightblue" stroke="midnightblue" points="105.68,-50.92 96.64,-56.44 107.16,-57.76 105.68,-50.92"/>
</g>
<!-- Node11&#45;&gt;Node9 -->
<g id="edge13" class="edge">
<title>Node11&#45;&gt;Node9</title>
<path fill="none" stroke="midnightblue" d="M56.87,-45.8C56.87,-36.91 56.87,-26.78 56.87,-19.75"/>
<polygon fill="midnightblue" stroke="midnightblue" points="53.37,-46.08 56.87,-56.08 60.37,-46.08 53.37,-46.08"/>
</g>
</g>
</svg>
