<?xml version="1.0" encoding="UTF-8" standalone="no"?>
<!DOCTYPE svg PUBLIC "-//W3C//DTD SVG 1.1//EN"
 "http://www.w3.org/Graphics/SVG/1.1/DTD/svg11.dtd">
<!-- Generated by graphviz version 2.49.3 (20211027.1534)
 -->
<!-- Title: uninitialized.hpp Pages: 1 -->
<svg width="520pt" height="252pt"
 viewBox="0.00 0.00 519.63 252.00" xmlns="http://www.w3.org/2000/svg" xmlns:xlink="http://www.w3.org/1999/xlink">
<g id="graph0" class="graph" transform="scale(1 1) rotate(0) translate(4 248)">
<title>uninitialized.hpp</title>
<!-- Node1 -->
<g id="node1" class="node">
<title>Node1</title>
<g id="a_node1"><a xlink:title=" ">
<polygon fill="#bfbfbf" stroke="black" points="51.63,-224.5 51.63,-243.5 136.63,-243.5 136.63,-224.5 51.63,-224.5"/>
<text text-anchor="middle" x="94.13" y="-231.5" font-family="Helvetica,sans-Serif" font-size="10.00">uninitialized.hpp</text>
</a>
</g>
</g>
<!-- Node2 -->
<g id="node2" class="node">
<title>Node2</title>
<g id="a_node2"><a xlink:title=" ">
<polygon fill="none" stroke="#bfbfbf" points="5.63,-0.5 5.63,-19.5 54.63,-19.5 54.63,-0.5 5.63,-0.5"/>
<text text-anchor="middle" x="30.13" y="-7.5" font-family="Helvetica,sans-Serif" font-size="10.00">cstddef</text>
</a>
</g>
</g>
<!-- Node1&#45;&gt;Node2 -->
<g id="edge1" class="edge">
<title>Node1&#45;&gt;Node2</title>
<path fill="none" stroke="midnightblue" d="M64.25,-224.39C46.59,-217.59 25.68,-206.15 15.13,-188 -14.52,-137 8.52,-63.38 22.05,-29.43"/>
<polygon fill="midnightblue" stroke="midnightblue" points="25.42,-30.46 26.04,-19.88 18.96,-27.76 25.42,-30.46"/>
</g>
<!-- Node3 -->
<g id="node3" class="node">
<title>Node3</title>
<g id="a_node3"><a xlink:href="construct_8hpp.html" target="_top" xlink:title=" ">
<polygon fill="none" stroke="black" points="23.63,-168.5 23.63,-187.5 98.63,-187.5 98.63,-168.5 23.63,-168.5"/>
<text text-anchor="middle" x="61.13" y="-175.5" font-family="Helvetica,sans-Serif" font-size="10.00">construct.hpp</text>
</a>
</g>
</g>
<!-- Node1&#45;&gt;Node3 -->
<g id="edge2" class="edge">
<title>Node1&#45;&gt;Node3</title>
<path fill="none" stroke="midnightblue" d="M88.68,-224.08C84.11,-216.61 77.46,-205.72 71.83,-196.52"/>
<polygon fill="midnightblue" stroke="midnightblue" points="74.67,-194.46 66.47,-187.75 68.7,-198.11 74.67,-194.46"/>
</g>
<!-- Node4 -->
<g id="node4" class="node">
<title>Node4</title>
<g id="a_node4"><a xlink:href="iterator_8hpp.html" target="_top" xlink:title=" ">
<polygon fill="none" stroke="black" points="156.13,-112.5 156.13,-131.5 228.13,-131.5 228.13,-112.5 156.13,-112.5"/>
<text text-anchor="middle" x="192.13" y="-119.5" font-family="Helvetica,sans-Serif" font-size="10.00">../iterator.hpp</text>
</a>
</g>
</g>
<!-- Node1&#45;&gt;Node4 -->
<g id="edge11" class="edge">
<title>Node1&#45;&gt;Node4</title>
<path fill="none" stroke="midnightblue" d="M103.88,-224.41C113.66,-215.62 128.99,-201.39 141.13,-188 155.21,-172.46 169.85,-153.46 179.81,-140.03"/>
<polygon fill="midnightblue" stroke="midnightblue" points="182.8,-141.86 185.89,-131.73 177.16,-137.72 182.8,-141.86"/>
</g>
<!-- Node5 -->
<g id="node5" class="node">
<title>Node5</title>
<g id="a_node5"><a xlink:title=" ">
<polygon fill="none" stroke="#bfbfbf" points="58.63,-56.5 58.63,-75.5 109.63,-75.5 109.63,-56.5 58.63,-56.5"/>
<text text-anchor="middle" x="84.13" y="-63.5" font-family="Helvetica,sans-Serif" font-size="10.00">memory</text>
</a>
</g>
</g>
<!-- Node1&#45;&gt;Node5 -->
<g id="edge12" class="edge">
<title>Node1&#45;&gt;Node5</title>
<path fill="none" stroke="midnightblue" d="M97.73,-224.22C101.18,-215.28 106.16,-200.94 108.13,-188 113.71,-151.28 100.71,-108.78 91.75,-85.18"/>
<polygon fill="midnightblue" stroke="midnightblue" points="94.94,-83.75 87.99,-75.76 88.44,-86.34 94.94,-83.75"/>
</g>
<!-- Node3&#45;&gt;Node2 -->
<g id="edge3" class="edge">
<title>Node3&#45;&gt;Node2</title>
<path fill="none" stroke="midnightblue" d="M59.46,-168.08C54.58,-141.95 40.25,-65.21 33.6,-29.58"/>
<polygon fill="midnightblue" stroke="midnightblue" points="37,-28.76 31.73,-19.57 30.12,-30.04 37,-28.76"/>
</g>
<!-- Node3&#45;&gt;Node4 -->
<g id="edge4" class="edge">
<title>Node3&#45;&gt;Node4</title>
<path fill="none" stroke="midnightblue" d="M81.88,-168.44C103.44,-159.56 137.39,-145.56 161.92,-135.45"/>
<polygon fill="midnightblue" stroke="midnightblue" points="163.55,-138.56 171.47,-131.52 160.89,-132.09 163.55,-138.56"/>
</g>
<!-- Node3&#45;&gt;Node5 -->
<g id="edge10" class="edge">
<title>Node3&#45;&gt;Node5</title>
<path fill="none" stroke="midnightblue" d="M62.93,-168.37C66.64,-150.62 75.2,-109.67 80.24,-85.6"/>
<polygon fill="midnightblue" stroke="midnightblue" points="83.71,-86.1 82.33,-75.59 76.86,-84.66 83.71,-86.1"/>
</g>
<!-- Node4&#45;&gt;Node5 -->
<g id="edge5" class="edge">
<title>Node4&#45;&gt;Node5</title>
<path fill="none" stroke="midnightblue" d="M174.77,-112.32C157.45,-103.66 130.61,-90.24 110.62,-80.25"/>
<polygon fill="midnightblue" stroke="midnightblue" points="111.94,-77 101.43,-75.65 108.81,-83.26 111.94,-77"/>
</g>
<!-- Node6 -->
<g id="node6" class="node">
<title>Node6</title>
<g id="a_node6"><a xlink:href="type__traits_8hpp.html" target="_top" xlink:title=" ">
<polygon fill="none" stroke="black" points="278.13,-56.5 278.13,-75.5 358.13,-75.5 358.13,-56.5 278.13,-56.5"/>
<text text-anchor="middle" x="318.13" y="-63.5" font-family="Helvetica,sans-Serif" font-size="10.00">type_traits.hpp</text>
</a>
</g>
</g>
<!-- Node4&#45;&gt;Node6 -->
<g id="edge6" class="edge">
<title>Node4&#45;&gt;Node6</title>
<path fill="none" stroke="midnightblue" d="M212.09,-112.44C232.74,-103.6 265.19,-89.69 288.76,-79.59"/>
<polygon fill="midnightblue" stroke="midnightblue" points="290.44,-82.67 298.25,-75.52 287.68,-76.24 290.44,-82.67"/>
</g>
<!-- Node7 -->
<g id="node7" class="node">
<title>Node7</title>
<g id="a_node7"><a xlink:href="reverse__iterator_8hpp.html" target="_top" xlink:title=" ">
<polygon fill="none" stroke="black" points="376.63,-56.5 376.63,-75.5 511.63,-75.5 511.63,-56.5 376.63,-56.5"/>
<text text-anchor="middle" x="444.13" y="-63.5" font-family="Helvetica,sans-Serif" font-size="10.00">iterator/reverse_iterator.hpp</text>
</a>
</g>
</g>
<!-- Node4&#45;&gt;Node7 -->
<g id="edge8" class="edge">
<title>Node4&#45;&gt;Node7</title>
<path fill="none" stroke="midnightblue" d="M228.23,-113.26C271.81,-103.92 345.33,-88.17 394.29,-77.68"/>
<polygon fill="midnightblue" stroke="midnightblue" points="395.3,-81.04 404.35,-75.52 393.83,-74.2 395.3,-81.04"/>
</g>
<!-- Node8 -->
<g id="node8" class="node">
<title>Node8</title>
<g id="a_node8"><a xlink:href="normal__iterator_8hpp.html" target="_top" xlink:title=" ">
<polygon fill="none" stroke="black" points="128.13,-56.5 128.13,-75.5 260.13,-75.5 260.13,-56.5 128.13,-56.5"/>
<text text-anchor="middle" x="194.13" y="-63.5" font-family="Helvetica,sans-Serif" font-size="10.00">iterator/normal_iterator.hpp</text>
</a>
</g>
</g>
<!-- Node4&#45;&gt;Node8 -->
<g id="edge9" class="edge">
<title>Node4&#45;&gt;Node8</title>
<path fill="none" stroke="midnightblue" d="M192.46,-112.08C192.72,-105.01 193.09,-94.86 193.42,-85.99"/>
<polygon fill="midnightblue" stroke="midnightblue" points="196.93,-85.87 193.8,-75.75 189.93,-85.61 196.93,-85.87"/>
</g>
<!-- Node6&#45;&gt;Node2 -->
<g id="edge7" class="edge">
<title>Node6&#45;&gt;Node2</title>
<path fill="none" stroke="midnightblue" d="M278.08,-57.49C221.42,-46.87 118.8,-27.63 65.07,-17.55"/>
<polygon fill="midnightblue" stroke="midnightblue" points="65.47,-14.07 55,-15.66 64.18,-20.95 65.47,-14.07"/>
</g>
</g>
</svg>
